<svg width="512" height="512" viewBox="0 0 512 512" fill="none" xmlns="http://www.w3.org/2000/svg">
<g clip-path="url(#clip0_4124_640)">
<g clip-path="url(#clip1_4124_640)">
<path d="M186.848 332.123L231.603 284.758L282.512 332.123H369.784L231.044 195.101L93.4229 332.123H186.848Z" fill="#2D383F"/>
<path d="M314.962 112.211L248.948 179.877L292.584 224.987L314.962 202.432L437.478 325.357C409.506 400.352 337.898 453.921 253.424 453.921C144.894 453.921 57.0623 365.392 57.0623 256C57.6218 146.608 145.453 58.0793 253.983 58.0793C350.206 58.0793 430.765 128.564 446.988 220.476L506.288 283.63C507.407 274.608 507.967 265.022 507.967 256C507.967 187.771 481.673 123.489 433.562 74.9956C385.45 26.5022 321.675 0 253.983 0C185.732 0 122.516 26.5022 74.4048 74.9956C26.2934 123.489 0 187.207 0 256C0 324.793 26.2934 388.511 74.4048 437.004C122.516 485.498 186.292 512 253.983 512C321.675 512 385.45 485.498 433.562 437.004C463.212 407.119 484.47 371.595 496.218 332.687C498.456 325.921 500.134 318.59 501.813 311.824L450.345 257.128L314.962 112.211Z" fill="#2D383F"/>
<path d="M717.53 164.504H754.88L734.507 267.745H797.511L791.474 297.595H691.122L717.53 164.504Z" fill="#2D383F"/>
<path d="M832.663 164.504H870.012L843.603 297.595H806.254L832.663 164.504Z" fill="#2D383F"/>
<path d="M928.086 193.594L922.238 222.874H980.525L974.678 251.964H916.579L907.525 297.595H870.175L896.584 164.504H999.955L994.107 193.594H928.086Z" fill="#2D383F"/>
<path d="M1048.55 193.594L1044.21 216.029H1102.87L1097.4 244.169H1038.55L1033.83 268.505H1103.06L1097.03 297.595H991.202L1017.61 164.504H1120.98L1115.13 193.594H1048.55Z" fill="#2D383F"/>
<path d="M1166.42 194.355H1125.86L1131.9 164.504H1250.17L1244.13 194.355H1203.77L1183.21 297.595H1145.86L1166.42 194.355Z" fill="#2D383F"/>
<path d="M1307.14 300.257C1293.81 300.257 1282.18 297.785 1272.24 292.842C1262.43 287.899 1254.82 280.991 1249.42 272.118C1244.13 263.245 1241.49 253.105 1241.49 241.697C1241.49 226.487 1244.95 212.797 1251.87 200.629C1258.91 188.46 1268.66 178.954 1281.11 172.109C1293.68 165.265 1307.96 161.842 1323.93 161.842C1337.26 161.842 1348.83 164.314 1358.63 169.257C1368.57 174.201 1376.18 181.109 1381.46 189.982C1386.87 198.854 1389.57 208.995 1389.57 220.402C1389.57 235.613 1386.05 249.302 1379.01 261.471C1372.09 273.639 1362.34 283.145 1349.77 289.99C1337.32 296.835 1323.11 300.257 1307.14 300.257ZM1310.34 269.076C1318.64 269.076 1325.94 266.984 1332.23 262.801C1338.51 258.619 1343.36 253.041 1346.75 246.07C1350.15 238.972 1351.84 231.176 1351.84 222.684C1351.84 213.684 1349.08 206.523 1343.54 201.199C1338.14 195.749 1330.53 193.024 1320.72 193.024C1312.42 193.024 1305.13 195.115 1298.84 199.298C1292.55 203.481 1287.71 209.121 1284.31 216.22C1280.92 223.191 1279.22 230.923 1279.22 239.415C1279.22 248.415 1281.92 255.64 1287.33 261.09C1292.87 266.414 1300.54 269.076 1310.34 269.076Z" fill="#2D383F"/>
<path d="M1459.69 300.257C1448.24 300.257 1438.37 298.356 1430.07 294.553C1421.77 290.624 1415.42 285.047 1411.02 277.822C1406.62 270.597 1404.42 262.104 1404.42 252.344C1404.42 248.288 1404.92 243.598 1405.93 238.275L1420.64 164.504H1457.99L1443.46 237.704C1442.71 241.507 1442.33 244.993 1442.33 248.161C1442.33 262.104 1449.63 269.076 1464.21 269.076C1472.14 269.076 1478.36 266.667 1482.89 261.851C1487.54 256.907 1491 248.859 1493.26 237.704L1507.79 164.504H1544.57L1529.67 239.986C1521.62 280.167 1498.29 300.257 1459.69 300.257Z" fill="#2D383F"/>
<path d="M1679.66 206.903C1679.66 219.071 1676.45 229.592 1670.04 238.465C1663.62 247.211 1654.63 253.612 1643.06 257.668L1665.51 297.595H1626.46L1606.84 262.231H1587.98L1581 297.595H1543.65L1570.06 164.504H1626.46C1643.31 164.504 1656.39 168.243 1665.7 175.722C1675 183.2 1679.66 193.594 1679.66 206.903ZM1641.93 210.516C1641.93 205.065 1640.11 201.009 1636.46 198.347C1632.81 195.559 1627.72 194.164 1621.18 194.164H1601.56L1593.64 233.141H1615.9C1624.2 233.141 1630.61 231.176 1635.14 227.247C1639.67 223.318 1641.93 217.741 1641.93 210.516Z" fill="#2D383F"/>
<path d="M715.989 423.086C711.44 423.086 707.306 422.072 703.588 420.044C699.914 417.972 697.027 415.15 694.927 411.579C692.872 408.008 691.844 403.996 691.844 399.543C691.844 395.09 692.872 391.078 694.927 387.507C697.027 383.936 699.914 381.136 703.588 379.108C707.306 377.036 711.44 376 715.989 376C720.538 376 724.627 377.014 728.258 379.042C731.932 381.07 734.819 383.892 736.919 387.507C739.018 391.078 740.068 395.09 740.068 399.543C740.068 403.996 739.018 408.03 736.919 411.645C734.819 415.216 731.932 418.016 728.258 420.044C724.627 422.072 720.538 423.086 715.989 423.086ZM715.989 418.721C719.619 418.721 722.9 417.906 725.83 416.274C728.761 414.599 731.057 412.306 732.719 409.397C734.382 406.443 735.213 403.158 735.213 399.543C735.213 395.928 734.382 392.665 732.719 389.755C731.057 386.801 728.761 384.509 725.83 382.878C722.9 381.202 719.619 380.365 715.989 380.365C712.358 380.365 709.056 381.202 706.081 382.878C703.151 384.509 700.832 386.801 699.126 389.755C697.464 392.665 696.633 395.928 696.633 399.543C696.633 403.158 697.464 406.443 699.126 409.397C700.832 412.306 703.151 414.599 706.081 416.274C709.056 417.906 712.358 418.721 715.989 418.721Z" fill="#2D383F"/>
<path d="M768.319 387.639C771.556 387.639 774.487 388.389 777.111 389.888C779.736 391.343 781.791 393.415 783.279 396.104C784.766 398.793 785.509 401.858 785.509 405.296C785.509 408.779 784.766 411.866 783.279 414.555C781.791 417.244 779.736 419.339 777.111 420.838C774.53 422.292 771.6 423.02 768.319 423.02C765.52 423.02 762.983 422.447 760.708 421.3C758.478 420.11 756.64 418.391 755.197 416.142V435.519H750.539V387.904H755V394.781C756.4 392.489 758.237 390.725 760.512 389.491C762.83 388.256 765.432 387.639 768.319 387.639ZM767.991 418.854C770.397 418.854 772.584 418.302 774.552 417.2C776.521 416.054 778.052 414.445 779.145 412.373C780.282 410.3 780.851 407.942 780.851 405.296C780.851 402.651 780.282 400.314 779.145 398.286C778.052 396.214 776.521 394.605 774.552 393.459C772.584 392.312 770.397 391.739 767.991 391.739C765.542 391.739 763.333 392.312 761.364 393.459C759.44 394.605 757.909 396.214 756.772 398.286C755.678 400.314 755.131 402.651 755.131 405.296C755.131 407.942 755.678 410.3 756.772 412.373C757.909 414.445 759.44 416.054 761.364 417.2C763.333 418.302 765.542 418.854 767.991 418.854Z" fill="#2D383F"/>
<path d="M819.926 392.07H800.177V422.689H795.518V387.904H819.926V392.07Z" fill="#2D383F"/>
<path d="M838.534 387.639C843.039 387.639 846.494 388.785 848.9 391.078C851.306 393.327 852.509 396.677 852.509 401.13V422.689H848.047V417.266C846.997 419.074 845.445 420.485 843.389 421.499C841.377 422.513 838.971 423.02 836.172 423.02C832.322 423.02 829.261 422.094 826.986 420.242C824.711 418.391 823.574 415.944 823.574 412.902C823.574 409.948 824.624 407.567 826.724 405.759C828.867 403.952 832.257 403.048 836.893 403.048H847.85V400.932C847.85 397.934 847.019 395.663 845.357 394.12C843.695 392.533 841.267 391.739 838.074 391.739C835.887 391.739 833.788 392.114 831.776 392.864C829.764 393.569 828.036 394.561 826.592 395.84L824.493 392.335C826.242 390.836 828.342 389.689 830.791 388.896C833.241 388.058 835.822 387.639 838.534 387.639ZM836.893 419.316C839.518 419.316 841.77 418.721 843.651 417.531C845.532 416.296 846.932 414.533 847.85 412.24V406.553H837.025C831.119 406.553 828.167 408.625 828.167 412.769C828.167 414.797 828.932 416.407 830.463 417.597C831.994 418.743 834.138 419.316 836.893 419.316Z" fill="#2D383F"/>
<path d="M864.91 387.904H869.568V403.312H891.286V387.904H895.944V422.689H891.286V407.347H869.568V422.689H864.91V387.904Z" fill="#2D383F"/>
<path d="M909.185 387.904H913.843V415.547L936.873 387.904H941.006V422.689H936.348V395.046L913.384 422.689H909.185V387.904Z" fill="#2D383F"/>
<path d="M970.448 404.569C972.898 405.142 974.779 406.134 976.091 407.545C977.447 408.956 978.125 410.675 978.125 412.703C978.125 414.731 977.425 416.539 976.025 418.126C974.669 419.713 972.81 420.948 970.448 421.83C968.086 422.667 965.484 423.086 962.64 423.086C960.147 423.086 957.698 422.733 955.292 422.028C952.886 421.278 950.787 420.198 948.993 418.787L950.568 415.282C952.143 416.473 953.98 417.399 956.079 418.06C958.179 418.721 960.3 419.052 962.444 419.052C965.637 419.052 968.239 418.457 970.251 417.266C972.307 416.032 973.335 414.379 973.335 412.306C973.335 410.455 972.504 409.022 970.842 408.008C969.18 406.95 966.905 406.421 964.018 406.421H958.113V402.982H963.756C966.337 402.982 968.414 402.497 969.989 401.527C971.564 400.513 972.351 399.168 972.351 397.493C972.351 395.641 971.454 394.186 969.661 393.128C967.911 392.07 965.615 391.541 962.772 391.541C959.054 391.541 955.379 392.489 951.749 394.385L950.437 390.747C954.548 388.587 958.813 387.507 963.231 387.507C965.855 387.507 968.217 387.904 970.317 388.697C972.46 389.447 974.122 390.527 975.303 391.938C976.528 393.349 977.141 394.98 977.141 396.832C977.141 398.595 976.528 400.16 975.303 401.527C974.122 402.894 972.504 403.908 970.448 404.569Z" fill="#2D383F"/>
<path d="M1000.58 387.639C1005.08 387.639 1008.54 388.785 1010.94 391.078C1013.35 393.327 1014.55 396.677 1014.55 401.13V422.689H1010.09V417.266C1009.04 419.074 1007.49 420.485 1005.43 421.499C1003.42 422.513 1001.01 423.02 998.214 423.02C994.364 423.02 991.302 422.094 989.028 420.242C986.753 418.391 985.616 415.944 985.616 412.902C985.616 409.948 986.666 407.567 988.766 405.759C990.909 403.952 994.299 403.048 998.935 403.048H1009.89V400.932C1009.89 397.934 1009.06 395.663 1007.4 394.12C1005.74 392.533 1003.31 391.739 1000.12 391.739C997.929 391.739 995.83 392.114 993.818 392.864C991.806 393.569 990.078 394.561 988.634 395.84L986.535 392.335C988.284 390.836 990.384 389.689 992.833 388.896C995.283 388.058 997.864 387.639 1000.58 387.639ZM998.935 419.316C1001.56 419.316 1003.81 418.721 1005.69 417.531C1007.57 416.296 1008.97 414.533 1009.89 412.24V406.553H999.066C993.161 406.553 990.209 408.625 990.209 412.769C990.209 414.797 990.974 416.407 992.505 417.597C994.036 418.743 996.18 419.316 998.935 419.316Z" fill="#2D383F"/>
<path d="M1062.91 418.589V431.419H1058.51V422.689H1026.95V387.904H1031.61V418.589H1052.67V387.904H1057.33V418.589H1062.91Z" fill="#2D383F"/>
<path d="M1071.8 387.904H1076.46V415.547L1099.49 387.904H1103.62V422.689H1098.97V395.046L1076 422.689H1071.8V387.904Z" fill="#2D383F"/>
<path d="M1143.48 387.904V422.689H1139.22V411.182H1127.08L1119.07 422.689H1114.02L1122.62 410.521C1119.95 409.771 1117.89 408.493 1116.45 406.685C1115.01 404.878 1114.29 402.585 1114.29 399.807C1114.29 395.928 1115.6 392.974 1118.22 390.946C1120.85 388.918 1124.43 387.904 1128.98 387.904H1143.48ZM1119.01 399.94C1119.01 405.098 1122.27 407.677 1128.79 407.677H1139.22V392.07H1129.11C1122.38 392.07 1119.01 394.693 1119.01 399.94Z" fill="#2D383F"/>
<path d="M1204.91 387.904V422.689H1200.25V392.07H1178.59V422.689H1173.94V387.904H1204.91Z" fill="#2D383F"/>
<path d="M1232.38 423.02C1229.06 423.02 1226.06 422.27 1223.4 420.771C1220.73 419.228 1218.63 417.112 1217.1 414.423C1215.57 411.733 1214.8 408.691 1214.8 405.296C1214.8 401.902 1215.57 398.86 1217.1 396.17C1218.63 393.481 1220.73 391.387 1223.4 389.888C1226.06 388.389 1229.06 387.639 1232.38 387.639C1235.71 387.639 1238.71 388.389 1241.37 389.888C1244.04 391.387 1246.12 393.481 1247.61 396.17C1249.14 398.86 1249.9 401.902 1249.9 405.296C1249.9 408.691 1249.14 411.733 1247.61 414.423C1246.12 417.112 1244.04 419.228 1241.37 420.771C1238.71 422.27 1235.71 423.02 1232.38 423.02ZM1232.38 418.854C1234.83 418.854 1237.02 418.302 1238.95 417.2C1240.91 416.054 1242.45 414.445 1243.54 412.373C1244.63 410.3 1245.18 407.942 1245.18 405.296C1245.18 402.651 1244.63 400.292 1243.54 398.22C1242.45 396.148 1240.91 394.561 1238.95 393.459C1237.02 392.312 1234.83 391.739 1232.38 391.739C1229.94 391.739 1227.73 392.312 1225.76 393.459C1223.83 394.561 1222.3 396.148 1221.17 398.22C1220.07 400.292 1219.53 402.651 1219.53 405.296C1219.53 407.942 1220.07 410.3 1221.17 412.373C1222.3 414.445 1223.83 416.054 1225.76 417.2C1227.73 418.302 1229.94 418.854 1232.38 418.854Z" fill="#2D383F"/>
<path d="M1280.23 422.689L1269.27 408.14L1258.25 422.689H1253L1266.65 404.834L1253.66 387.904H1258.9L1269.27 401.527L1279.64 387.904H1284.76L1271.76 404.834L1285.54 422.689H1280.23Z" fill="#2D383F"/>
<path d="M1306.2 423.02C1302.87 423.02 1299.88 422.27 1297.21 420.771C1294.54 419.228 1292.44 417.112 1290.91 414.423C1289.38 411.733 1288.61 408.691 1288.61 405.296C1288.61 401.902 1289.38 398.86 1290.91 396.17C1292.44 393.481 1294.54 391.387 1297.21 389.888C1299.88 388.389 1302.87 387.639 1306.2 387.639C1309.52 387.639 1312.52 388.389 1315.19 389.888C1317.85 391.387 1319.93 393.481 1321.42 396.17C1322.95 398.86 1323.72 401.902 1323.72 405.296C1323.72 408.691 1322.95 411.733 1321.42 414.423C1319.93 417.112 1317.85 419.228 1315.19 420.771C1312.52 422.27 1309.52 423.02 1306.2 423.02ZM1306.2 418.854C1308.65 418.854 1310.83 418.302 1312.76 417.2C1314.73 416.054 1316.26 414.445 1317.35 412.373C1318.45 410.3 1318.99 407.942 1318.99 405.296C1318.99 402.651 1318.45 400.292 1317.35 398.22C1316.26 396.148 1314.73 394.561 1312.76 393.459C1310.83 392.312 1308.65 391.739 1306.2 391.739C1303.75 391.739 1301.54 392.312 1299.57 393.459C1297.65 394.561 1296.12 396.148 1294.98 398.22C1293.88 400.292 1293.34 402.651 1293.34 405.296C1293.34 407.942 1293.88 410.3 1294.98 412.373C1296.12 414.445 1297.65 416.054 1299.57 417.2C1301.54 418.302 1303.75 418.854 1306.2 418.854Z" fill="#2D383F"/>
<path d="M1367.14 418.589V431.088H1362.74V422.689H1331.84V431.088H1327.44V418.589H1329.41C1331.73 418.457 1333.3 416.737 1334.14 413.431C1334.97 410.124 1335.54 405.495 1335.84 399.543L1336.3 387.904H1361.76V418.589H1367.14ZM1340.11 399.807C1339.89 404.745 1339.47 408.823 1338.86 412.042C1338.25 415.216 1337.15 417.399 1335.58 418.589H1357.1V392.07H1340.5L1340.11 399.807Z" fill="#2D383F"/>
<path d="M1390.45 423.02C1387.13 423.02 1384.13 422.27 1381.47 420.771C1378.8 419.228 1376.7 417.112 1375.17 414.423C1373.64 411.733 1372.87 408.691 1372.87 405.296C1372.87 401.902 1373.64 398.86 1375.17 396.17C1376.7 393.481 1378.8 391.387 1381.47 389.888C1384.13 388.389 1387.13 387.639 1390.45 387.639C1393.78 387.639 1396.77 388.389 1399.44 389.888C1402.11 391.387 1404.19 393.481 1405.68 396.17C1407.21 398.86 1407.97 401.902 1407.97 405.296C1407.97 408.691 1407.21 411.733 1405.68 414.423C1404.19 417.112 1402.11 419.228 1399.44 420.771C1396.77 422.27 1393.78 423.02 1390.45 423.02ZM1390.45 418.854C1392.9 418.854 1395.09 418.302 1397.02 417.2C1398.98 416.054 1400.51 414.445 1401.61 412.373C1402.7 410.3 1403.25 407.942 1403.25 405.296C1403.25 402.651 1402.7 400.292 1401.61 398.22C1400.51 396.148 1398.98 394.561 1397.02 393.459C1395.09 392.312 1392.9 391.739 1390.45 391.739C1388 391.739 1385.8 392.312 1383.83 393.459C1381.9 394.561 1380.37 396.148 1379.23 398.22C1378.14 400.292 1377.59 402.651 1377.59 405.296C1377.59 407.942 1378.14 410.3 1379.23 412.373C1380.37 414.445 1381.9 416.054 1383.83 417.2C1385.8 418.302 1388 418.854 1390.45 418.854Z" fill="#2D383F"/>
<path d="M1439.91 404.701C1444.59 405.803 1446.93 408.647 1446.93 413.232C1446.93 416.274 1445.81 418.611 1443.58 420.242C1441.35 421.874 1438.03 422.689 1433.61 422.689H1417.93V387.904H1433.15C1437.09 387.904 1440.17 388.675 1442.4 390.218C1444.63 391.761 1445.75 393.966 1445.75 396.832C1445.75 398.727 1445.22 400.359 1444.17 401.725C1443.17 403.048 1441.75 404.04 1439.91 404.701ZM1422.46 403.379H1432.82C1435.49 403.379 1437.52 402.872 1438.92 401.858C1440.37 400.844 1441.09 399.367 1441.09 397.427C1441.09 395.487 1440.37 394.032 1438.92 393.062C1437.52 392.092 1435.49 391.607 1432.82 391.607H1422.46V403.379ZM1433.41 418.986C1436.39 418.986 1438.62 418.501 1440.11 417.531C1441.59 416.561 1442.34 415.04 1442.34 412.968C1442.34 410.896 1441.66 409.375 1440.3 408.405C1438.95 407.391 1436.8 406.884 1433.87 406.884H1422.46V418.986H1433.41Z" fill="#2D383F"/>
<path d="M1497 404.701C1501.68 405.803 1504.02 408.647 1504.02 413.232C1504.02 416.274 1502.9 418.611 1500.67 420.242C1498.44 421.874 1495.12 422.689 1490.7 422.689H1475.02V387.904H1490.24C1494.18 387.904 1497.26 388.675 1499.49 390.218C1501.72 391.761 1502.84 393.966 1502.84 396.832C1502.84 398.727 1502.31 400.359 1501.26 401.725C1500.26 403.048 1498.84 404.04 1497 404.701ZM1479.55 403.379H1489.91C1492.58 403.379 1494.61 402.872 1496.01 401.858C1497.46 400.844 1498.18 399.367 1498.18 397.427C1498.18 395.487 1497.46 394.032 1496.01 393.062C1494.61 392.092 1492.58 391.607 1489.91 391.607H1479.55V403.379ZM1490.5 418.986C1493.48 418.986 1495.71 418.501 1497.19 417.531C1498.68 416.561 1499.43 415.04 1499.43 412.968C1499.43 410.896 1498.75 409.375 1497.39 408.405C1496.04 407.391 1493.89 406.884 1490.96 406.884H1479.55V418.986H1490.5Z" fill="#2D383F"/>
<path d="M1556.51 392.07H1536.77V422.689H1532.11V387.904H1556.51V392.07Z" fill="#2D383F"/>
<path d="M1575.88 423.02C1572.56 423.02 1569.56 422.27 1566.89 420.771C1564.23 419.228 1562.13 417.112 1560.6 414.423C1559.06 411.733 1558.3 408.691 1558.3 405.296C1558.3 401.902 1559.06 398.86 1560.6 396.17C1562.13 393.481 1564.23 391.387 1566.89 389.888C1569.56 388.389 1572.56 387.639 1575.88 387.639C1579.21 387.639 1582.2 388.389 1584.87 389.888C1587.54 391.387 1589.62 393.481 1591.1 396.17C1592.64 398.86 1593.4 401.902 1593.4 405.296C1593.4 408.691 1592.64 411.733 1591.1 414.423C1589.62 417.112 1587.54 419.228 1584.87 420.771C1582.2 422.27 1579.21 423.02 1575.88 423.02ZM1575.88 418.854C1578.33 418.854 1580.52 418.302 1582.44 417.2C1584.41 416.054 1585.94 414.445 1587.04 412.373C1588.13 410.3 1588.68 407.942 1588.68 405.296C1588.68 402.651 1588.13 400.292 1587.04 398.22C1585.94 396.148 1584.41 394.561 1582.44 393.459C1580.52 392.312 1578.33 391.739 1575.88 391.739C1573.43 391.739 1571.22 392.312 1569.26 393.459C1567.33 394.561 1565.8 396.148 1564.66 398.22C1563.57 400.292 1563.02 402.651 1563.02 405.296C1563.02 407.942 1563.57 410.3 1564.66 412.373C1565.8 414.445 1567.33 416.054 1569.26 417.2C1571.22 418.302 1573.43 418.854 1575.88 418.854Z" fill="#2D383F"/>
<path d="M1621.14 387.639C1624.37 387.639 1627.31 388.389 1629.93 389.888C1632.55 391.343 1634.61 393.415 1636.1 396.104C1637.58 398.793 1638.33 401.858 1638.33 405.296C1638.33 408.779 1637.58 411.866 1636.1 414.555C1634.61 417.244 1632.55 419.339 1629.93 420.838C1627.35 422.292 1624.42 423.02 1621.14 423.02C1618.34 423.02 1615.8 422.447 1613.53 421.3C1611.3 420.11 1609.46 418.391 1608.02 416.142V435.519H1603.36V387.904H1607.82V394.781C1609.22 392.489 1611.06 390.725 1613.33 389.491C1615.65 388.256 1618.25 387.639 1621.14 387.639ZM1620.81 418.854C1623.22 418.854 1625.4 418.302 1627.37 417.2C1629.34 416.054 1630.87 414.445 1631.96 412.373C1633.1 410.3 1633.67 407.942 1633.67 405.296C1633.67 402.651 1633.1 400.314 1631.96 398.286C1630.87 396.214 1629.34 394.605 1627.37 393.459C1625.4 392.312 1623.22 391.739 1620.81 391.739C1618.36 391.739 1616.15 392.312 1614.18 393.459C1612.26 394.605 1610.73 396.214 1609.59 398.286C1608.5 400.314 1607.95 402.651 1607.95 405.296C1607.95 407.942 1608.5 410.3 1609.59 412.373C1610.73 414.445 1612.26 416.054 1614.18 417.2C1616.15 418.302 1618.36 418.854 1620.81 418.854Z" fill="#2D383F"/>
<path d="M1662.84 400.204C1667.17 400.248 1670.47 401.218 1672.74 403.114C1675.02 405.01 1676.16 407.743 1676.16 411.315C1676.16 415.018 1674.93 417.862 1672.48 419.846C1670.03 421.83 1666.53 422.799 1661.98 422.755L1648.34 422.689V387.904H1653V400.072L1662.84 400.204ZM1681.93 387.904H1686.59V422.689H1681.93V387.904ZM1661.72 419.184C1664.91 419.228 1667.32 418.589 1668.94 417.266C1670.6 415.9 1671.43 413.916 1671.43 411.315C1671.43 408.757 1670.62 406.862 1669 405.627C1667.39 404.393 1664.96 403.753 1661.72 403.709L1653 403.577V419.052L1661.72 419.184Z" fill="#2D383F"/>
</g>
</g>
<defs>
<clipPath id="clip0_4124_640">
<rect width="512" height="512" fill="white"/>
</clipPath>
<clipPath id="clip1_4124_640">
<rect width="1686.59" height="512" fill="white"/>
</clipPath>
</defs>
</svg>
