<svg xmlns="http://www.w3.org/2000/svg" xmlns:xlink="http://www.w3.org/1999/xlink"><defs>
    <clipPath id="clip0_131_4065">
      <rect width="12" height="12" fill="white"/>
    </clipPath>
  
<clipPath id="clip0_5011_132">
<rect width="205" height="62" fill="inherit"/>
</clipPath>

<clipPath id="clip0_248_2190">
<rect width="25" height="25" fill="white"/>
</clipPath>

    <clipPath id="clip0_5221_151">
      <rect width="12" height="12" fill="white"/>
    </clipPath>
  
<clipPath id="clip0_248_2161">
<rect width="25" height="25" fill="white"/>
</clipPath>

<clipPath id="clip0_248_2173">
<rect width="23" height="23" fill="white"/>
</clipPath>

<clipPath id="clip0_131_2748">
<rect width="22" height="22" fill="white"/>
</clipPath>

<clipPath id="clip0_248_2546">
<rect width="15" height="14" fill="white"/>
</clipPath>

<clipPath id="clip0_248_2060">
<rect width="26" height="26" fill="white"/>
</clipPath>
</defs><symbol id="arrow" viewBox="0 0 14 8"><g fill="inherit">
<path d="M0.646446 4.35355C0.451184 4.15829 0.451184 3.84171 0.646446 3.64645L3.82843 0.464466C4.02369 0.269204 4.34027 0.269204 4.53553 0.464466C4.7308 0.659728 4.7308 0.976311 4.53553 1.17157L1.70711 4L4.53553 6.82843C4.7308 7.02369 4.7308 7.34027 4.53553 7.53553C4.34027 7.7308 4.02369 7.7308 3.82843 7.53553L0.646446 4.35355ZM14 4.5H1V3.5H14V4.5Z" fill="inherit"/>
</g></symbol><symbol id="boots" viewBox="0 0 24 24"><g fill="inherit">
<path d="M23.6583 15.6155C24.404 13.2805 23.7904 10.6301 23.1385 8.79354C23.1342 8.72248 23.1123 8.65361 23.0746 8.59327C22.853 7.99671 22.6484 7.50669 22.4737 7.15302C22.7953 7.02497 23.0075 6.71509 23.0106 6.36898V2.8195C23.0106 2.34881 22.6291 1.96729 22.1584 1.96729H11.6889C11.4536 1.96686 11.2625 2.15728 11.2621 2.39265C11.2621 2.40144 11.2624 2.41023 11.2628 2.41896C11.4077 4.97561 11.2202 6.70987 10.6791 7.9328C10.6683 7.94494 10.6583 7.95778 10.6492 7.97115C10.6476 7.9924 10.6476 8.01381 10.6492 8.03506C10.4427 8.48024 10.1633 8.88776 9.82259 9.24095L9.78424 9.26652C9.78424 9.26652 9.78424 9.26652 9.78424 9.29634C9.28468 9.77279 8.70853 10.1617 8.07981 10.4468C6.98439 10.9329 5.86021 11.3512 4.71355 11.6996L4.49624 11.772C0.512129 13.093 -0.00772321 15.4877 0.000798953 16.6893C-0.000266318 16.7064 -0.000266318 16.7234 0.000798953 16.7404V19.7829C0.00143811 19.9309 0.07883 20.068 0.205331 20.1451C1.18176 20.7392 2.23574 21.1951 3.33722 21.5001C3.56375 21.5638 3.79907 21.4318 3.86278 21.2052C3.87476 21.1625 3.88003 21.1182 3.87838 21.074V20.976H4.50476V21.4021C4.50204 21.6132 4.65433 21.7944 4.86269 21.8282C5.23341 21.8878 5.60412 21.9347 5.96631 21.9645C6.08498 21.9745 6.20243 21.9343 6.29015 21.8537C6.37783 21.7724 6.42731 21.658 6.42651 21.5384V21.0015H7.05289V21.6066C7.05289 21.8419 7.24368 22.0327 7.479 22.0327C7.83693 22.0327 8.19486 22.0327 8.57835 21.9816C8.8003 21.9638 8.97107 21.7781 8.97037 21.5555V21.0015H9.59675V21.3765C9.59372 21.6118 9.782 21.8051 10.0173 21.8081C10.042 21.8084 10.0666 21.8066 10.091 21.8026C10.8732 21.6828 11.6442 21.499 12.3963 21.2529L12.4645 21.2231C15.4472 19.5187 17.3391 20.9206 17.4158 20.9802C17.4902 21.038 17.5816 21.0694 17.6758 21.0697H18.2041C18.4395 21.0697 18.6302 20.8789 18.6302 20.6436V19.9235H19.2396V20.6351C19.2396 20.8704 19.4304 21.0612 19.6657 21.0612H21.0378C21.2731 21.0612 21.4639 20.8704 21.4639 20.6351V19.9235H22.0945V20.6351C22.0945 20.8704 22.2853 21.0612 22.5206 21.0612H23.5731C23.8084 21.0612 23.9992 20.8704 23.9992 20.6351V16.0416C24.0034 15.8359 23.8599 15.6566 23.6583 15.6155ZM13.5468 2.82802H13.8962H22.1371V6.3562H13.5468V2.82802ZM8.1906 11.3246L8.19486 11.3502C8.54416 11.6338 8.86651 11.949 9.15786 12.2919C9.08058 12.4204 9.04073 12.568 9.04281 12.718C9.03988 13.1675 9.40191 13.5342 9.85135 13.5371C10.3008 13.5401 10.6676 13.178 10.6705 12.7286C10.6733 12.3051 10.3509 11.9504 9.92912 11.9126C9.6596 11.5452 9.35254 11.2067 9.01298 10.9028C9.39377 10.686 9.75202 10.432 10.0825 10.1443C10.4958 10.532 10.8803 10.9493 11.233 11.3928C11.0848 11.8171 11.3086 12.2813 11.7329 12.4296C12.1572 12.5778 12.6214 12.354 12.7697 11.9297C12.9179 11.5053 12.6941 11.0412 12.2698 10.8929C12.1817 10.8621 12.0891 10.8467 11.9957 10.8474H11.8935C11.5197 10.3768 11.1125 9.93396 10.6748 9.52218C10.8779 9.27211 11.0576 9.00398 11.2117 8.7211C11.8714 9.06449 12.5089 9.44873 13.1207 9.87159C13.1165 10.3258 13.4813 10.6973 13.9354 10.7015C14.3896 10.7057 14.7612 10.3409 14.7654 9.88677C14.7696 9.43259 14.4048 9.06102 13.9506 9.05682C13.8209 9.05559 13.6927 9.0851 13.5766 9.14294C12.9327 8.70704 12.2624 8.31145 11.5696 7.95836C12.0341 6.72265 12.2344 5.08214 12.1406 2.84507H12.6988V6.37324C12.6988 6.84393 13.0803 7.22546 13.551 7.22546H21.5363C21.6471 7.4513 21.8346 7.84331 22.0391 8.35464H21.8644C19.2758 8.37334 17.1925 10.4869 17.2112 13.0755C17.2218 14.5465 17.9224 15.9272 19.1032 16.8044C15.656 17.712 10.4703 18.79 6.10693 18.5088C6.91227 15.2917 5.94927 13.3103 5.32289 12.441C6.2983 12.1211 7.25561 11.7484 8.1906 11.3246ZM4.46641 12.6839C4.92661 13.2251 6.12823 15.0445 5.24619 18.3895C3.71082 18.2688 2.2196 17.8182 0.874321 17.0686C0.859034 16.9712 0.849074 16.873 0.844493 16.7745V16.7447C0.810404 15.8371 1.15129 13.8727 4.46641 12.6839ZM22.9467 20.209V19.4974C22.9467 19.262 22.7559 19.0713 22.5206 19.0713H21.042C20.8067 19.0713 20.6159 19.262 20.6159 19.4974V20.209H20.0918V19.4974C20.0918 19.262 19.901 19.0713 19.6657 19.0713H18.1956C17.9603 19.0713 17.7695 19.262 17.7695 19.4974V20.1919C17.19 19.8297 15.0722 18.7772 12.0682 20.4561C11.5337 20.6325 10.9886 20.7748 10.4362 20.8822V20.5882C10.4362 20.3529 10.2454 20.1621 10.0101 20.1621H8.54C8.30469 20.1621 8.1139 20.3529 8.1139 20.5882V21.172H7.89658V20.5754C7.89658 20.3401 7.70579 20.1493 7.47047 20.1493H5.99188C5.75656 20.1493 5.56577 20.3401 5.56577 20.5754V21.0825L5.34845 21.0527V20.5754C5.34845 20.3401 5.15767 20.1493 4.92235 20.1493H3.44375C3.22702 20.1478 3.04364 20.3091 3.01764 20.5243C2.26136 20.2753 1.53308 19.9482 0.844493 19.5485V18.023C2.70232 19.0073 5.10557 19.3781 7.66222 19.3781C14.4544 19.3781 22.2266 16.7788 23.1427 16.4677L23.147 20.209H22.9467ZM22.7379 15.7135C22.3757 15.8328 21.4852 16.1396 20.2537 16.4677C18.3473 15.5451 17.5497 13.2516 18.4724 11.3451C19.1036 10.041 20.4158 9.20393 21.8644 9.18129C22.0324 9.17895 22.2003 9.18747 22.3672 9.20686L22.3715 9.21964C22.9979 11.0263 23.5603 13.6043 22.7379 15.7135Z" fill="inherit"/>
<path d="M15.1872 3.34375C14.5024 3.34375 13.9473 3.89892 13.9473 4.58372C13.9496 5.26757 14.5034 5.82135 15.1872 5.8237C15.872 5.8237 16.4272 5.26853 16.4272 4.58372C16.4272 3.89892 15.8721 3.34375 15.1872 3.34375ZM15.1872 4.97148C14.9731 4.97148 14.7995 4.7979 14.7995 4.58372C14.7995 4.36955 14.9731 4.19597 15.1872 4.19597C15.4014 4.19597 15.575 4.36955 15.575 4.58372C15.575 4.7979 15.4014 4.97148 15.1872 4.97148Z" fill="inherit"/>
</g></symbol><symbol id="complexity" viewBox="0 0 12 12"><g fill="none">
  <g clip-path="url(#clip0_131_4065)">
    <path d="M10.9091 11.4546H8.94549V0.545471H10.9091V11.4546Z" stroke="white" stroke-miterlimit="16" stroke-linecap="round"/>
    <path d="M6.98185 11.4546V3.52068H5.01821L5.01822 11.4546H6.98185Z" stroke="white" stroke-miterlimit="16" stroke-linecap="round"/>
    <path d="M3.05458 11.4546V6.49588H1.09094V11.4546H3.05458Z" stroke="white" stroke-miterlimit="16" stroke-linecap="round"/>
  </g>
  
</g></symbol><symbol id="day" viewBox="0 0 20 20"><g fill="none">
<path d="M13.545 6.45505C12.6455 5.55558 11.3757 4.97357 10 4.97357C8.62433 4.97357 7.35449 5.52912 6.45502 6.45505C5.55555 7.35451 4.97354 8.62435 4.97354 10C4.97354 11.3757 5.55555 12.6455 6.45502 13.545C7.35449 14.4444 8.62433 15.0265 10 15.0265C11.3757 15.0265 12.6455 14.4709 13.545 13.545C14.4444 12.6455 15.0265 11.3757 15.0265 10C15.0265 8.62435 14.4709 7.35451 13.545 6.45505ZM12.5926 12.5926C11.9312 13.254 11.0053 13.6508 10 13.6508C8.9947 13.6508 8.06878 13.254 7.4074 12.5926C6.74603 11.9312 6.3492 11.0053 6.3492 10C6.3492 8.99472 6.74603 8.0688 7.4074 7.40742C8.06878 6.74605 8.9947 6.34923 10 6.34923C11.0053 6.34923 11.9312 6.74605 12.5926 7.40742C13.254 8.0688 13.6508 8.99472 13.6508 10C13.6508 11.0053 13.254 11.9312 12.5926 12.5926Z" fill="white"/>
<path d="M19.3122 9.3122H17.2751C16.9048 9.3122 16.5873 9.62966 16.5873 10C16.5873 10.3704 16.9048 10.6879 17.2751 10.6879H19.3122C19.6825 10.6879 20 10.3704 20 10C20 9.62966 19.6825 9.3122 19.3122 9.3122Z" fill="white"/>
<path d="M9.99999 16.5873C9.62962 16.5873 9.31216 16.9048 9.31216 17.2751V19.3122C9.31216 19.6825 9.62962 20 9.99999 20C10.3704 20 10.6878 19.6825 10.6878 19.3122V17.2751C10.6878 16.9048 10.3704 16.5873 9.99999 16.5873Z" fill="white"/>
<path d="M17.0635 16.1111L15.6085 14.656C15.3704 14.3915 14.9207 14.3915 14.6561 14.656C14.3916 14.9206 14.3916 15.3439 14.6561 15.6084L16.1111 17.0634C16.3757 17.328 16.799 17.328 17.0635 17.0634C17.3281 16.7989 17.3281 16.3756 17.0635 16.1111Z" fill="white"/>
<path d="M9.99999 0C9.62962 0 9.31216 0.317459 9.31216 0.687829V2.72486C9.31216 3.09523 9.62962 3.41269 9.99999 3.41269C10.3704 3.41269 10.6878 3.09523 10.6878 2.72486V0.687829C10.6878 0.317459 10.3704 0 9.99999 0Z" fill="white"/>
<path d="M17.0899 2.93653C16.8254 2.67198 16.4021 2.67198 16.1376 2.93653L14.6825 4.39155C14.418 4.6561 14.418 5.07938 14.6825 5.34393C14.9206 5.60848 15.3704 5.60848 15.6349 5.34393L17.0899 3.88891C17.3545 3.62436 17.3545 3.20108 17.0899 2.93653Z" fill="white"/>
<path d="M2.72487 9.3122H0.687831C0.31746 9.3122 0 9.62966 0 10C0 10.3704 0.291005 10.6879 0.687831 10.6879H2.72487C3.09524 10.6879 3.4127 10.3704 3.4127 10C3.4127 9.62966 3.09524 9.3122 2.72487 9.3122Z" fill="white"/>
<path d="M5.31746 14.656C5.07937 14.3915 4.62963 14.3915 4.36508 14.656L2.91005 16.1111C2.6455 16.3756 2.6455 16.7989 2.91005 17.0634C3.1746 17.328 3.59788 17.328 3.86243 17.0634L5.31746 15.6084C5.58201 15.3439 5.58201 14.9206 5.31746 14.656Z" fill="white"/>
<path d="M5.31746 4.39155L3.86243 2.93653C3.59788 2.67198 3.1746 2.67198 2.91005 2.93653C2.6455 3.20108 2.6455 3.62436 2.91005 3.88891L4.36508 5.34393C4.62963 5.60848 5.05291 5.60848 5.31746 5.34393C5.58201 5.07938 5.58201 4.6561 5.31746 4.39155Z" fill="white"/>
</g></symbol><symbol id="ecology" viewBox="0 0 22 22"><g fill="none">
<path d="M10.6903 16.2442C10.0125 13.3813 8.01953 10.9718 5.27543 9.69773C3.92399 9.07026 2.46282 8.75181 1 8.74238C1.08555 10.771 1.83429 12.7457 3.17529 14.367C5.06036 16.646 7.9121 17.9803 10.933 17.9998C10.9083 17.4135 10.828 16.8259 10.6903 16.2442ZM10.6903 16.2442C10.1339 13.894 8.69109 11.8494 6.67408 10.4875C6.70814 10.2845 6.74903 10.0818 6.79684 9.87988C7.37026 7.4577 8.88519 5.36004 11 4C13.1147 5.36004 14.6297 7.4577 15.2031 9.87988C15.2509 10.0818 15.2918 10.2845 15.3258 10.4875C13.3088 11.8493 11.8661 13.894 11.3097 16.2442M10.6903 16.2442C10.8279 16.8257 10.9082 17.4131 10.933 17.9992C10.9748 17.9997 11.0166 18 11.0585 18C11.9054 18 12.7394 17.8966 13.5431 17.698C13.5477 17.692 13.5522 17.6859 13.5567 17.6799C12.752 17.8849 11.9162 17.9943 11.067 17.9998M11.3097 16.2442C11.9875 13.3813 13.9805 10.9718 16.7246 9.69773C18.076 9.07026 19.5372 8.75181 21 8.74238C20.9144 10.771 20.1657 12.7457 18.8247 14.367C16.9396 16.646 14.0879 17.9803 11.067 17.9998M11.3097 16.2442C11.172 16.8259 11.0917 17.4135 11.067 17.9998" stroke="#0266C1" stroke-linecap="round" stroke-linejoin="round"/>
</g></symbol><symbol id="geolocation" viewBox="0 0 26 26"><g fill="none">
<path d="M21.8635 9.62847C21.8635 4.96342 17.8951 1.18164 12.9999 1.18164C8.10462 1.18164 4.13623 4.96342 4.13623 9.62847V10.1372C4.13623 12.0038 4.74823 13.8237 5.88667 15.3426L12.9824 24.8094C12.9909 24.8209 13.0088 24.8209 13.0174 24.8094L20.1131 15.3426C21.2515 13.8237 21.8635 12.0038 21.8635 10.1372V9.62847Z" stroke="#2D383F" stroke-linecap="round" stroke-linejoin="round"/>
<path d="M11.2674 6.25049C12.3622 5.74805 13.6375 5.74805 14.7323 6.25049C15.8271 6.75293 16.6223 7.70313 16.8927 8.8321C17.1631 9.96107 16.8793 11.1459 16.1217 12.0513C15.364 12.9567 14.215 13.484 12.9999 13.484C11.7847 13.484 10.6357 12.9567 9.87807 12.0513C9.12044 11.1459 8.83665 9.96107 9.10705 8.8321C9.37744 7.70313 10.1726 6.75293 11.2674 6.25049Z" stroke="#2D383F" stroke-linecap="round" stroke-linejoin="round"/>
</g></symbol><symbol id="knowledge" viewBox="0 0 22 22"><g fill="none">
<path d="M17.6867 20H4.31331M21 7.11028L18.0746 16.8049H3.92539L1 7.11028L6.77168 10.6142L11 2L15.2283 10.6142L21 7.11028Z" stroke="#0266C1"/>
</g></symbol><symbol id="link-arrow" viewBox="0 0 9 14"><g stroke="currentColor" fill="none">
<path d="M1 13L7 7L0.999999 1" stroke="currentColor" stroke-width="2"/>
</g></symbol><symbol id="logo" viewBox="0 0 205 62"><g fill="inherit">
<g clip-path="url(#clip0_5011_132)">
<path d="M22.7109 40.218L28.1507 34.4824L34.3385 40.218H44.9461L28.0827 23.6255L11.3553 40.218H22.7109Z" fill="inherit"/>
<path d="M38.2827 13.5881L30.259 21.7819L35.5628 27.2445L38.2827 24.5132L53.1742 39.3987C49.7743 48.4802 41.0706 54.967 30.8029 54.967C17.6114 54.967 6.93576 44.2467 6.93576 31C7.00376 17.7533 17.6794 7.03304 30.8709 7.03304C42.5665 7.03304 52.3582 15.5683 54.3301 26.6982L61.5379 34.3458C61.6739 33.2533 61.7419 32.0925 61.7419 31C61.7419 22.7379 58.546 14.9537 52.6982 9.0815C46.8504 3.20925 39.0987 0 30.8709 0C22.5752 0 14.8915 3.20925 9.04369 9.0815C3.19589 14.9537 0 22.6696 0 31C0 39.3304 3.19589 47.0463 9.04369 52.9185C14.8915 58.7907 22.6432 62 30.8709 62C39.0987 62 46.8504 58.7907 52.6982 52.9185C56.3021 49.2996 58.886 44.9978 60.3139 40.2863C60.5859 39.467 60.7899 38.5793 60.9939 37.7599L54.7381 31.1366L38.2827 13.5881Z" fill="inherit"/>
<path d="M87.2138 19.9204H91.7535L89.2773 32.4222H96.9351L96.2015 36.0369H84.0039L87.2138 19.9204Z" fill="inherit"/>
<path d="M101.208 19.9204H105.747L102.538 36.0369H97.9979L101.208 19.9204Z" fill="inherit"/>
<path d="M112.806 23.443L112.095 26.9887H119.18L118.469 30.5113H111.408L110.307 36.0369H105.767L108.977 19.9204H121.542L120.831 23.443H112.806Z" fill="inherit"/>
<path d="M127.448 23.443L126.921 26.1598H134.051L133.386 29.5673H126.233L125.659 32.5143H134.074L133.34 36.0369H120.478L123.688 19.9204H136.252L135.541 23.443H127.448Z" fill="inherit"/>
<path d="M141.775 23.5351H136.845L137.579 19.9204H151.955L151.221 23.5351H146.315L143.815 36.0369H139.276L141.775 23.5351Z" fill="inherit"/>
<path d="M158.879 36.3593C157.259 36.3593 155.845 36.06 154.637 35.4613C153.445 34.8627 152.52 34.0262 151.863 32.9518C151.221 31.8773 150.9 30.6494 150.9 29.268C150.9 27.4261 151.32 25.7684 152.161 24.2949C153.017 22.8214 154.202 21.6702 155.715 20.8414C157.243 20.0125 158.978 19.5981 160.919 19.5981C162.54 19.5981 163.946 19.8974 165.138 20.496C166.346 21.0946 167.27 21.9311 167.912 23.0056C168.57 24.08 168.898 25.3079 168.898 26.6893C168.898 28.5312 168.47 30.1889 167.614 31.6624C166.774 33.136 165.589 34.2871 164.061 35.116C162.547 35.9448 160.82 36.3593 158.879 36.3593ZM159.269 32.5834C160.278 32.5834 161.164 32.3301 161.928 31.8236C162.693 31.3171 163.281 30.6417 163.694 29.7975C164.106 28.938 164.313 27.994 164.313 26.9656C164.313 25.8758 163.977 25.0086 163.304 24.364C162.647 23.704 161.722 23.374 160.53 23.374C159.521 23.374 158.634 23.6272 157.87 24.1337C157.106 24.6402 156.517 25.3233 156.105 26.1828C155.692 27.027 155.486 27.9633 155.486 28.9917C155.486 30.0815 155.814 30.9564 156.471 31.6164C157.144 32.2611 158.076 32.5834 159.269 32.5834Z" fill="inherit"/>
<path d="M177.421 36.3593C176.03 36.3593 174.83 36.129 173.821 35.6686C172.812 35.1927 172.04 34.5174 171.505 33.6425C170.97 32.7676 170.703 31.7392 170.703 30.5573C170.703 30.0661 170.764 29.4982 170.886 28.8536L172.675 19.9204H177.214L175.449 28.7845C175.357 29.245 175.311 29.6671 175.311 30.0508C175.311 31.7392 176.198 32.5834 177.971 32.5834C178.934 32.5834 179.69 32.2918 180.241 31.7085C180.806 31.1099 181.227 30.1352 181.502 28.7845L183.267 19.9204H187.738L185.927 29.0608C184.949 33.9264 182.113 36.3593 177.421 36.3593Z" fill="inherit"/>
<path d="M204.157 25.0547C204.157 26.5282 203.768 27.8022 202.988 28.8766C202.209 29.9357 201.116 30.7108 199.709 31.202L202.438 36.0369H197.692L195.307 31.7545H193.015L192.166 36.0369H187.627L190.836 19.9204H197.692C199.74 19.9204 201.33 20.3732 202.461 21.2788C203.592 22.1844 204.157 23.443 204.157 25.0547ZM199.572 25.4921C199.572 24.8321 199.35 24.3409 198.907 24.0186C198.464 23.6809 197.845 23.5121 197.05 23.5121H194.665L193.702 28.2319H196.408C197.417 28.2319 198.196 27.994 198.746 27.5182C199.297 27.0424 199.572 26.367 199.572 25.4921Z" fill="inherit"/>
<path d="M87.0264 51.2331C86.4734 51.2331 85.971 51.1103 85.5191 50.8647C85.0725 50.6138 84.7216 50.2721 84.4664 49.8396C84.2166 49.4072 84.0916 48.9214 84.0916 48.3821C84.0916 47.8429 84.2166 47.3571 84.4664 46.9247C84.7216 46.4922 85.0725 46.1532 85.5191 45.9076C85.971 45.6567 86.4734 45.5312 87.0264 45.5312C87.5793 45.5312 88.0764 45.654 88.5177 45.8996C88.9643 46.1452 89.3152 46.4869 89.5704 46.9247C89.8255 47.3571 89.9531 47.8429 89.9531 48.3821C89.9531 48.9214 89.8255 49.4099 89.5704 49.8477C89.3152 50.2801 88.9643 50.6191 88.5177 50.8647C88.0764 51.1103 87.5793 51.2331 87.0264 51.2331ZM87.0264 50.7045C87.4676 50.7045 87.8664 50.6058 88.2226 50.4082C88.5788 50.2053 88.8579 49.9277 89.06 49.5754C89.262 49.2177 89.363 48.8199 89.363 48.3821C89.363 47.9444 89.262 47.5493 89.06 47.1969C88.8579 46.8392 88.5788 46.5616 88.2226 46.3641C87.8664 46.1612 87.4676 46.0598 87.0264 46.0598C86.5851 46.0598 86.1837 46.1612 85.8222 46.3641C85.466 46.5616 85.1842 46.8392 84.9768 47.1969C84.7748 47.5493 84.6738 47.9444 84.6738 48.3821C84.6738 48.8199 84.7748 49.2177 84.9768 49.5754C85.1842 49.9277 85.466 50.2053 85.8222 50.4082C86.1837 50.6058 86.5851 50.7045 87.0264 50.7045Z" fill="inherit"/>
<path d="M93.387 46.9407C93.7804 46.9407 94.1367 47.0314 94.4556 47.213C94.7746 47.3891 95.0245 47.6401 95.2053 47.9657C95.386 48.2914 95.4764 48.6624 95.4764 49.0789C95.4764 49.5006 95.386 49.8743 95.2053 50.2C95.0245 50.5257 94.7746 50.7793 94.4556 50.9608C94.142 51.137 93.7858 51.2251 93.387 51.2251C93.0467 51.2251 92.7384 51.1557 92.4619 51.0168C92.1908 50.8727 91.9675 50.6645 91.792 50.3922V52.7386H91.2258V46.9727H91.7681V47.8056C91.9382 47.5279 92.1615 47.3144 92.438 47.1649C92.7198 47.0154 93.0361 46.9407 93.387 46.9407ZM93.3471 50.7205C93.6395 50.7205 93.9054 50.6538 94.1446 50.5203C94.3839 50.3815 94.5699 50.1867 94.7029 49.9357C94.8411 49.6848 94.9102 49.3992 94.9102 49.0789C94.9102 48.7585 94.8411 48.4756 94.7029 48.23C94.5699 47.9791 94.3839 47.7842 94.1446 47.6454C93.9054 47.5066 93.6395 47.4372 93.3471 47.4372C93.0494 47.4372 92.7809 47.5066 92.5417 47.6454C92.3077 47.7842 92.1217 47.9791 91.9834 48.23C91.8505 48.4756 91.7841 48.7585 91.7841 49.0789C91.7841 49.3992 91.8505 49.6848 91.9834 49.9357C92.1217 50.1867 92.3077 50.3815 92.5417 50.5203C92.7809 50.6538 93.0494 50.7205 93.3471 50.7205Z" fill="inherit"/>
<path d="M99.6596 47.4772H97.2592V51.185H96.693V46.9727H99.6596V47.4772Z" fill="inherit"/>
<path d="M101.921 46.9407C102.469 46.9407 102.889 47.0795 103.181 47.3571C103.474 47.6294 103.62 48.0351 103.62 48.5743V51.185H103.078V50.5283C102.95 50.7472 102.761 50.9181 102.512 51.0409C102.267 51.1637 101.975 51.2251 101.634 51.2251C101.166 51.2251 100.794 51.1129 100.518 50.8887C100.241 50.6645 100.103 50.3682 100.103 49.9998C100.103 49.6421 100.231 49.3538 100.486 49.1349C100.746 48.916 101.158 48.8066 101.722 48.8066H103.054V48.5503C103.054 48.1873 102.953 47.9123 102.751 47.7255C102.549 47.5333 102.254 47.4372 101.866 47.4372C101.6 47.4372 101.345 47.4826 101.1 47.5733C100.855 47.6587 100.645 47.7789 100.47 47.9337L100.215 47.5093C100.427 47.3277 100.683 47.1889 100.98 47.0928C101.278 46.9914 101.592 46.9407 101.921 46.9407ZM101.722 50.7766C102.041 50.7766 102.315 50.7045 102.543 50.5604C102.772 50.4109 102.942 50.1973 103.054 49.9197V49.231H101.738C101.02 49.231 100.661 49.4819 100.661 49.9838C100.661 50.2294 100.754 50.4242 100.94 50.5684C101.127 50.7072 101.387 50.7766 101.722 50.7766Z" fill="inherit"/>
<path d="M105.127 46.9727H105.694V48.8386H108.333V46.9727H108.899V51.185H108.333V49.3271H105.694V51.185H105.127V46.9727Z" fill="inherit"/>
<path d="M110.509 46.9727H111.075V50.3201L113.874 46.9727H114.377V51.185H113.81V47.8376L111.019 51.185H110.509V46.9727Z" fill="inherit"/>
<path d="M117.955 48.9908C118.253 49.0602 118.482 49.1803 118.641 49.3511C118.806 49.522 118.888 49.7302 118.888 49.9758C118.888 50.2214 118.803 50.4403 118.633 50.6325C118.468 50.8246 118.242 50.9741 117.955 51.0809C117.668 51.1824 117.352 51.2331 117.006 51.2331C116.703 51.2331 116.405 51.1904 116.113 51.1049C115.821 51.0142 115.565 50.8834 115.347 50.7125L115.539 50.2881C115.73 50.4322 115.954 50.5444 116.209 50.6244C116.464 50.7045 116.722 50.7446 116.982 50.7446C117.37 50.7446 117.687 50.6725 117.931 50.5283C118.181 50.3789 118.306 50.1787 118.306 49.9277C118.306 49.7035 118.205 49.53 118.003 49.4072C117.801 49.2791 117.525 49.215 117.174 49.215H116.456V48.7986H117.142C117.455 48.7986 117.708 48.7398 117.899 48.6224C118.091 48.4996 118.186 48.3368 118.186 48.1339C118.186 47.9097 118.077 47.7335 117.86 47.6054C117.647 47.4772 117.368 47.4132 117.022 47.4132C116.57 47.4132 116.124 47.5279 115.682 47.7575L115.523 47.3171C116.023 47.0555 116.541 46.9247 117.078 46.9247C117.397 46.9247 117.684 46.9727 117.939 47.0688C118.2 47.1596 118.402 47.2904 118.545 47.4612C118.694 47.632 118.769 47.8296 118.769 48.0538C118.769 48.2674 118.694 48.4569 118.545 48.6224C118.402 48.7879 118.205 48.9107 117.955 48.9908Z" fill="inherit"/>
<path d="M121.617 46.9407C122.165 46.9407 122.585 47.0795 122.877 47.3571C123.17 47.6294 123.316 48.0351 123.316 48.5743V51.185H122.773V50.5283C122.646 50.7472 122.457 50.9181 122.207 51.0409C121.963 51.1637 121.67 51.2251 121.33 51.2251C120.862 51.2251 120.49 51.1129 120.214 50.8887C119.937 50.6645 119.799 50.3682 119.799 49.9998C119.799 49.6421 119.926 49.3538 120.182 49.1349C120.442 48.916 120.854 48.8066 121.418 48.8066H122.75V48.5503C122.75 48.1873 122.649 47.9123 122.446 47.7255C122.244 47.5333 121.949 47.4372 121.561 47.4372C121.295 47.4372 121.04 47.4826 120.796 47.5733C120.551 47.6587 120.341 47.7789 120.166 47.9337L119.91 47.5093C120.123 47.3277 120.378 47.1889 120.676 47.0928C120.974 46.9914 121.287 46.9407 121.617 46.9407ZM121.418 50.7766C121.737 50.7766 122.011 50.7045 122.239 50.5604C122.468 50.4109 122.638 50.1973 122.75 49.9197V49.231H121.434C120.716 49.231 120.357 49.4819 120.357 49.9838C120.357 50.2294 120.45 50.4242 120.636 50.5684C120.822 50.7072 121.083 50.7766 121.418 50.7766Z" fill="inherit"/>
<path d="M129.193 50.6885V52.2421H128.659V51.185H124.823V46.9727H125.389V50.6885H127.949V46.9727H128.515V50.6885H129.193Z" fill="inherit"/>
<path d="M130.275 46.9727H130.841V50.3201L133.64 46.9727H134.142V51.185H133.576V47.8376L130.785 51.185H130.275V46.9727Z" fill="inherit"/>
<path d="M138.987 46.9727V51.185H138.469V49.7916H136.993L136.02 51.185H135.406L136.451 49.7115C136.127 49.6208 135.877 49.4659 135.701 49.247C135.526 49.0281 135.438 48.7505 135.438 48.4142C135.438 47.9444 135.598 47.5867 135.917 47.3411C136.236 47.0955 136.672 46.9727 137.225 46.9727H138.987ZM136.012 48.4302C136.012 49.0548 136.408 49.3672 137.201 49.3672H138.469V47.4772H137.24C136.422 47.4772 136.012 47.7949 136.012 48.4302Z" fill="inherit"/>
<path d="M146.453 46.9727V51.185H145.887V47.4772H143.255V51.185H142.689V46.9727H146.453Z" fill="inherit"/>
<path d="M149.793 51.2251C149.389 51.2251 149.025 51.1343 148.7 50.9528C148.376 50.7659 148.121 50.5097 147.935 50.184C147.749 49.8583 147.656 49.4899 147.656 49.0789C147.656 48.6678 147.749 48.2994 147.935 47.9737C148.121 47.6481 148.376 47.3945 148.7 47.213C149.025 47.0314 149.389 46.9407 149.793 46.9407C150.197 46.9407 150.561 47.0314 150.885 47.213C151.21 47.3945 151.462 47.6481 151.643 47.9737C151.829 48.2994 151.922 48.6678 151.922 49.0789C151.922 49.4899 151.829 49.8583 151.643 50.184C151.462 50.5097 151.21 50.7659 150.885 50.9528C150.561 51.1343 150.197 51.2251 149.793 51.2251ZM149.793 50.7205C150.091 50.7205 150.356 50.6538 150.59 50.5203C150.83 50.3815 151.016 50.1867 151.149 49.9357C151.282 49.6848 151.348 49.3992 151.348 49.0789C151.348 48.7585 151.282 48.4729 151.149 48.222C151.016 47.9711 150.83 47.7789 150.59 47.6454C150.356 47.5066 150.091 47.4372 149.793 47.4372C149.495 47.4372 149.227 47.5066 148.987 47.6454C148.753 47.7789 148.567 47.9711 148.429 48.222C148.296 48.4729 148.23 48.7585 148.23 49.0789C148.23 49.3992 148.296 49.6848 148.429 49.9357C148.567 50.1867 148.753 50.3815 148.987 50.5203C149.227 50.6538 149.495 50.7205 149.793 50.7205Z" fill="inherit"/>
<path d="M155.608 51.185L154.276 49.4232L152.936 51.185H152.298L153.957 49.0228L152.378 46.9727H153.016L154.276 48.6224L155.536 46.9727H156.158L154.579 49.0228L156.254 51.185H155.608Z" fill="inherit"/>
<path d="M158.765 51.2251C158.361 51.2251 157.996 51.1343 157.672 50.9528C157.348 50.7659 157.093 50.5097 156.906 50.184C156.72 49.8583 156.627 49.4899 156.627 49.0789C156.627 48.6678 156.72 48.2994 156.906 47.9737C157.093 47.6481 157.348 47.3945 157.672 47.213C157.996 47.0314 158.361 46.9407 158.765 46.9407C159.169 46.9407 159.533 47.0314 159.857 47.213C160.181 47.3945 160.434 47.6481 160.615 47.9737C160.801 48.2994 160.894 48.6678 160.894 49.0789C160.894 49.4899 160.801 49.8583 160.615 50.184C160.434 50.5097 160.181 50.7659 159.857 50.9528C159.533 51.1343 159.169 51.2251 158.765 51.2251ZM158.765 50.7205C159.062 50.7205 159.328 50.6538 159.562 50.5203C159.801 50.3815 159.987 50.1867 160.12 49.9357C160.253 49.6848 160.32 49.3992 160.32 49.0789C160.32 48.7585 160.253 48.4729 160.12 48.222C159.987 47.9711 159.801 47.7789 159.562 47.6454C159.328 47.5066 159.062 47.4372 158.765 47.4372C158.467 47.4372 158.198 47.5066 157.959 47.6454C157.725 47.7789 157.539 47.9711 157.401 48.222C157.268 48.4729 157.202 48.7585 157.202 49.0789C157.202 49.3992 157.268 49.6848 157.401 49.9357C157.539 50.1867 157.725 50.3815 157.959 50.5203C158.198 50.6538 158.467 50.7205 158.765 50.7205Z" fill="inherit"/>
<path d="M166.172 50.6885V52.2021H165.637V51.185H161.881V52.2021H161.347V50.6885H161.586C161.868 50.6725 162.059 50.4643 162.16 50.0639C162.261 49.6635 162.331 49.1029 162.368 48.3821L162.424 46.9727H165.518V50.6885H166.172ZM162.886 48.4142C162.86 49.0121 162.809 49.506 162.735 49.8957C162.66 50.2801 162.527 50.5444 162.336 50.6885H164.952V47.4772H162.934L162.886 48.4142Z" fill="inherit"/>
<path d="M169.006 51.2251C168.602 51.2251 168.238 51.1343 167.913 50.9528C167.589 50.7659 167.334 50.5097 167.148 50.184C166.962 49.8583 166.868 49.4899 166.868 49.0789C166.868 48.6678 166.962 48.2994 167.148 47.9737C167.334 47.6481 167.589 47.3945 167.913 47.213C168.238 47.0314 168.602 46.9407 169.006 46.9407C169.41 46.9407 169.774 47.0314 170.098 47.213C170.423 47.3945 170.675 47.6481 170.856 47.9737C171.042 48.2994 171.135 48.6678 171.135 49.0789C171.135 49.4899 171.042 49.8583 170.856 50.184C170.675 50.5097 170.423 50.7659 170.098 50.9528C169.774 51.1343 169.41 51.2251 169.006 51.2251ZM169.006 50.7205C169.303 50.7205 169.569 50.6538 169.803 50.5203C170.042 50.3815 170.229 50.1867 170.361 49.9357C170.494 49.6848 170.561 49.3992 170.561 49.0789C170.561 48.7585 170.494 48.4729 170.361 48.222C170.229 47.9711 170.042 47.7789 169.803 47.6454C169.569 47.5066 169.303 47.4372 169.006 47.4372C168.708 47.4372 168.44 47.5066 168.2 47.6454C167.966 47.7789 167.78 47.9711 167.642 48.222C167.509 48.4729 167.443 48.7585 167.443 49.0789C167.443 49.3992 167.509 49.6848 167.642 49.9357C167.78 50.1867 167.966 50.3815 168.2 50.5203C168.44 50.6538 168.708 50.7205 169.006 50.7205Z" fill="inherit"/>
<path d="M175.017 49.0068C175.586 49.1403 175.87 49.4846 175.87 50.0398C175.87 50.4082 175.734 50.6912 175.463 50.8887C175.192 51.0863 174.788 51.185 174.251 51.185H172.345V46.9727H174.195C174.674 46.9727 175.049 47.0661 175.32 47.253C175.591 47.4398 175.727 47.7068 175.727 48.0538C175.727 48.2834 175.663 48.4809 175.535 48.6464C175.413 48.8066 175.24 48.9267 175.017 49.0068ZM172.895 48.8466H174.155C174.48 48.8466 174.727 48.7852 174.897 48.6624C175.073 48.5396 175.16 48.3608 175.16 48.1259C175.16 47.891 175.073 47.7148 174.897 47.5973C174.727 47.4799 174.48 47.4212 174.155 47.4212H172.895V48.8466ZM174.227 50.7366C174.589 50.7366 174.86 50.6778 175.041 50.5604C175.221 50.4429 175.312 50.2587 175.312 50.0078C175.312 49.7569 175.229 49.5727 175.065 49.4552C174.9 49.3325 174.639 49.2711 174.283 49.2711H172.895V50.7366H174.227Z" fill="inherit"/>
<path d="M181.956 49.0068C182.525 49.1403 182.809 49.4846 182.809 50.0398C182.809 50.4082 182.674 50.6912 182.402 50.8887C182.131 51.0863 181.727 51.185 181.19 51.185H179.284V46.9727H181.134C181.613 46.9727 181.988 47.0661 182.259 47.253C182.53 47.4398 182.666 47.7068 182.666 48.0538C182.666 48.2834 182.602 48.4809 182.474 48.6464C182.352 48.8066 182.179 48.9267 181.956 49.0068ZM179.835 48.8466H181.095C181.419 48.8466 181.666 48.7852 181.836 48.6624C182.012 48.5396 182.099 48.3608 182.099 48.1259C182.099 47.891 182.012 47.7148 181.836 47.5973C181.666 47.4799 181.419 47.4212 181.095 47.4212H179.835V48.8466ZM181.166 50.7366C181.528 50.7366 181.799 50.6778 181.98 50.5604C182.161 50.4429 182.251 50.2587 182.251 50.0078C182.251 49.7569 182.168 49.5727 182.004 49.4552C181.839 49.3325 181.578 49.2711 181.222 49.2711H179.835V50.7366H181.166Z" fill="inherit"/>
<path d="M189.19 47.4772H186.79V51.185H186.223V46.9727H189.19V47.4772Z" fill="inherit"/>
<path d="M191.544 51.2251C191.14 51.2251 190.776 51.1343 190.452 50.9528C190.127 50.7659 189.872 50.5097 189.686 50.184C189.5 49.8583 189.407 49.4899 189.407 49.0789C189.407 48.6678 189.5 48.2994 189.686 47.9737C189.872 47.6481 190.127 47.3945 190.452 47.213C190.776 47.0314 191.14 46.9407 191.544 46.9407C191.948 46.9407 192.312 47.0314 192.637 47.213C192.961 47.3945 193.214 47.6481 193.394 47.9737C193.58 48.2994 193.673 48.6678 193.673 49.0789C193.673 49.4899 193.58 49.8583 193.394 50.184C193.214 50.5097 192.961 50.7659 192.637 50.9528C192.312 51.1343 191.948 51.2251 191.544 51.2251ZM191.544 50.7205C191.842 50.7205 192.108 50.6538 192.342 50.5203C192.581 50.3815 192.767 50.1867 192.9 49.9357C193.033 49.6848 193.099 49.3992 193.099 49.0789C193.099 48.7585 193.033 48.4729 192.9 48.222C192.767 47.9711 192.581 47.7789 192.342 47.6454C192.108 47.5066 191.842 47.4372 191.544 47.4372C191.246 47.4372 190.978 47.5066 190.739 47.6454C190.505 47.7789 190.319 47.9711 190.18 48.222C190.047 48.4729 189.981 48.7585 189.981 49.0789C189.981 49.3992 190.047 49.6848 190.18 49.9357C190.319 50.1867 190.505 50.3815 190.739 50.5203C190.978 50.6538 191.246 50.7205 191.544 50.7205Z" fill="inherit"/>
<path d="M197.045 46.9407C197.438 46.9407 197.794 47.0314 198.113 47.213C198.432 47.3891 198.682 47.6401 198.863 47.9657C199.044 48.2914 199.134 48.6624 199.134 49.0789C199.134 49.5006 199.044 49.8743 198.863 50.2C198.682 50.5257 198.432 50.7793 198.113 50.9608C197.8 51.137 197.443 51.2251 197.045 51.2251C196.704 51.2251 196.396 51.1557 196.12 51.0168C195.848 50.8727 195.625 50.6645 195.45 50.3922V52.7386H194.884V46.9727H195.426V47.8056C195.596 47.5279 195.819 47.3144 196.096 47.1649C196.377 47.0154 196.694 46.9407 197.045 46.9407ZM197.005 50.7205C197.297 50.7205 197.563 50.6538 197.802 50.5203C198.042 50.3815 198.228 50.1867 198.361 49.9357C198.499 49.6848 198.568 49.3992 198.568 49.0789C198.568 48.7585 198.499 48.4756 198.361 48.23C198.228 47.9791 198.042 47.7842 197.802 47.6454C197.563 47.5066 197.297 47.4372 197.005 47.4372C196.707 47.4372 196.439 47.5066 196.199 47.6454C195.965 47.7842 195.779 47.9791 195.641 48.23C195.508 48.4756 195.442 48.7585 195.442 49.0789C195.442 49.3992 195.508 49.6848 195.641 49.9357C195.779 50.1867 195.965 50.3815 196.199 50.5203C196.439 50.6538 196.707 50.7205 197.005 50.7205Z" fill="inherit"/>
<path d="M202.113 48.4622C202.639 48.4676 203.041 48.585 203.317 48.8146C203.594 49.0442 203.732 49.3752 203.732 49.8076C203.732 50.2561 203.583 50.6004 203.285 50.8407C202.988 51.0809 202.562 51.1984 202.009 51.193L200.351 51.185V46.9727H200.917V48.4462L202.113 48.4622ZM204.434 46.9727H205V51.185H204.434V46.9727ZM201.978 50.7606C202.366 50.7659 202.658 50.6885 202.855 50.5283C203.057 50.3628 203.158 50.1226 203.158 49.8076C203.158 49.498 203.059 49.2684 202.863 49.1189C202.666 48.9694 202.371 48.892 201.978 48.8867L200.917 48.8706V50.7446L201.978 50.7606Z" fill="inherit"/>
</g>

</g></symbol><symbol id="map" viewBox="0 0 25 25"><g fill="none">
<g clip-path="url(#clip0_248_2190)">
<path d="M24.1704 22.2803V6.70123C24.1823 6.44571 23.9848 6.22897 23.7293 6.2171C23.6748 6.21456 23.6204 6.22168 23.5684 6.23812V6.26127L21.4844 6.91426C21.7026 6.33016 21.8321 5.71665 21.8688 5.09423C21.8688 2.28077 19.588 0 16.7745 0C13.9611 0 11.6803 2.28077 11.6803 5.09423C11.7128 5.68754 11.833 6.27279 12.0369 6.8309L8.59135 5.59902C8.55135 5.5941 8.51094 5.5941 8.47094 5.59902H8.43389C8.37837 5.60001 8.32344 5.61101 8.2718 5.63144L1.12598 8.41011C0.961171 8.47281 0.846262 8.62361 0.82959 8.79913V16.246V24.3967C0.830342 24.6525 1.03828 24.8592 1.29409 24.8585C1.35065 24.8583 1.40669 24.8478 1.45942 24.8274L8.44315 22.1229L16.4087 24.9756C16.5048 25.0081 16.6089 25.0081 16.7051 24.9756L23.8463 22.7434C24.0469 22.6806 24.18 22.4904 24.1704 22.2803ZM16.7745 0.926224C19.0765 0.926224 20.9425 2.79228 20.9425 5.09423C20.9425 6.905 18.2241 11.9066 16.7745 14.3565C15.325 11.8881 12.6065 6.88184 12.6065 5.09423C12.6065 2.79228 14.4726 0.926224 16.7745 0.926224ZM23.2581 21.9608L17.0246 23.9105V20.3769C17.0246 20.1212 16.8173 19.9138 16.5615 19.9138C16.3057 19.9138 16.0984 20.1212 16.0984 20.3769V23.8781L8.90163 21.3032V18.3392C8.90163 18.0835 8.69427 17.8761 8.43852 17.8761C8.18277 17.8761 7.97541 18.0835 7.97541 18.3392V21.3032L1.75581 23.7252V16.5655L4.04359 15.6393C4.2884 15.5652 4.42675 15.3067 4.35266 15.0618C4.27856 14.817 4.02003 14.6787 3.77521 14.7528C3.74963 14.7605 3.72473 14.7705 3.70083 14.7825L1.75576 15.5652V9.11868L7.97535 6.71049V8.09983C7.97535 8.35558 8.18271 8.56294 8.43846 8.56294C8.69421 8.56294 8.90157 8.35558 8.90157 8.09983V6.69197L12.4536 7.96553C13.5928 10.5687 14.9032 13.0936 16.3762 15.5235C16.5088 15.7422 16.7936 15.8119 17.0123 15.6793C17.076 15.6407 17.1295 15.5872 17.1681 15.5235C18.6339 13.1079 19.9396 10.5985 21.0768 8.01184L23.2442 7.33106L23.258 14.9215L20.9101 15.4911C20.6543 15.5218 20.4718 15.754 20.5025 16.0098C20.5332 16.2655 20.7655 16.448 21.0212 16.4173C21.0581 16.4218 21.0954 16.4218 21.1324 16.4173L23.258 15.8986V21.9608H23.2581Z" fill="#2D383F"/>
<path d="M16.7556 2.40332C15.2696 2.40332 14.0649 3.60799 14.0649 5.094C14.0649 6.58001 15.2696 7.78468 16.7556 7.78468C18.2406 7.78213 19.4438 6.57897 19.4463 5.094C19.4463 3.60799 18.2416 2.40332 16.7556 2.40332ZM16.7556 6.85846C15.7895 6.84584 15.0121 6.06028 15.0097 5.094H14.9912C14.9912 4.1195 15.7811 3.32954 16.7556 3.32954C17.7301 3.32954 18.5201 4.1195 18.5201 5.094C18.5201 6.0685 17.7301 6.85846 16.7556 6.85846Z" fill="#2D383F"/>
<path d="M10.6981 13.9672V13.9811L8.45661 13.0132C8.34251 12.9656 8.21411 12.9656 8.10001 13.0132L6.20589 13.7774C5.96802 13.8733 5.85294 14.1439 5.94886 14.3817C6.04478 14.6196 6.31536 14.7347 6.55322 14.6387L8.26673 13.9487L10.3276 14.8194C10.3861 14.8443 10.4492 14.8569 10.5128 14.8564C10.7686 14.8585 10.9776 14.6529 10.9797 14.3971C10.9812 14.2101 10.8701 14.0405 10.6981 13.9672Z" fill="#2D383F"/>
<path d="M18.27 16.6161C18.201 16.393 17.9766 16.2562 17.7467 16.2969L17.7513 16.2599L16.6028 16.5377L14.6578 15.6949C14.4224 15.5926 14.1487 15.7004 14.0465 15.9357C13.9442 16.171 14.052 16.4447 14.2873 16.547L16.3713 17.4732C16.4298 17.4982 16.4929 17.5108 16.5565 17.5103H16.6677L17.9644 17.1954C18.2087 17.1198 18.3455 16.8604 18.27 16.6161Z" fill="#2D383F"/>
</g>

</g></symbol><symbol id="message" viewBox="0 0 26 26"><g fill="none">
<path d="M24.818 6.56592V19.4346C24.818 20.4499 24.0621 21.273 23.1297 21.273H2.86995C1.93752 21.273 1.18164 20.4499 1.18164 19.4346V6.56592M24.818 6.56592C24.818 5.55061 24.0621 4.72754 23.1297 4.72754H2.86995C1.93752 4.72754 1.18164 5.55061 1.18164 6.56592M24.818 6.56592L15.1973 15.5452C13.9328 16.7254 12.0669 16.7254 10.8024 15.5452L1.18164 6.56592" stroke="#2D383F" stroke-linecap="round" stroke-linejoin="round"/>
</g></symbol><symbol id="moon" viewBox="0 0 12 12"><g fill="none">
  <g clip-path="url(#clip0_5221_151)">
    <path d="M11.1966 6.75379C11.0851 6.72581 10.9736 6.75379 10.876 6.82374C10.5135 7.13153 10.0953 7.38335 9.6352 7.55123C9.20301 7.71912 8.72901 7.80306 8.22712 7.80306C7.09786 7.80306 6.0662 7.34138 5.32731 6.5999C4.58841 5.85842 4.12835 4.82314 4.12835 3.68994C4.12835 3.21427 4.212 2.75259 4.35141 2.33289C4.50477 1.8852 4.72783 1.47949 5.0206 1.12973C5.14607 0.975839 5.11819 0.751995 4.96483 0.626083C4.86724 0.556132 4.75571 0.528152 4.64418 0.556132C3.45916 0.877907 2.4275 1.59141 1.6886 2.54274C0.977593 3.48008 0.54541 4.64127 0.54541 5.91438C0.54541 7.43931 1.15883 8.82434 2.16261 9.83164C3.16639 10.8389 4.54659 11.4545 6.0662 11.4545C7.34881 11.4545 8.53383 11.0068 9.48184 10.2653C10.4438 9.50986 11.1409 8.43262 11.4336 7.20148C11.5033 6.99163 11.3918 6.79576 11.1966 6.75379ZM9.0636 9.67774C8.255 10.3213 7.22334 10.713 6.09408 10.713C4.76965 10.713 3.57069 10.1674 2.70633 9.30001C1.84196 8.43262 1.29825 7.22946 1.29825 5.90039C1.29825 4.79516 1.66072 3.78787 2.28808 2.97644C2.72027 2.41683 3.26398 1.95515 3.89134 1.63338C3.82164 1.78727 3.75193 1.94116 3.69617 2.10904C3.51493 2.61269 3.43128 3.14432 3.43128 3.70393C3.43128 5.033 3.97499 6.25015 4.83936 7.11754C5.70373 7.98493 6.91663 8.53055 8.24106 8.53055C8.8266 8.53055 9.38425 8.43262 9.90008 8.23675C10.0813 8.1668 10.2626 8.09685 10.4299 8.01291C10.0953 8.65646 9.6352 9.23006 9.0636 9.67774Z" fill="white"/>
  </g>
  
</g></symbol><symbol id="mountain" viewBox="0 0 25 25"><g fill="none">
<g clip-path="url(#clip0_248_2161)">
<path d="M23.4153 24.1879L19.3747 14.7901L15.5583 5.9074C15.4551 5.665 15.1749 5.55224 14.9325 5.65546C14.8192 5.70376 14.7289 5.79404 14.6806 5.9074L11.2744 13.8121L9.93871 16.9177L7.00963 10.1579C6.90634 9.91551 6.62614 9.80274 6.3838 9.90596C6.27044 9.95427 6.18016 10.0445 6.13186 10.1579L3.37928 16.517L0.0399368 24.1831C-0.0654315 24.4246 0.0448861 24.7058 0.286333 24.8112C0.347037 24.8377 0.412572 24.8513 0.478822 24.851H22.9765C23.2399 24.8508 23.4533 24.6371 23.4531 24.3736C23.4531 24.3098 23.4402 24.2467 23.4153 24.1879ZM15.1147 7.29561L18.2107 14.4943H17.1231L15.1576 12.3237C14.9804 12.1287 14.6787 12.1143 14.4837 12.2916C14.4531 12.3194 14.4263 12.351 14.4039 12.3857L13.6692 13.5211H12.4384L15.1147 7.29561ZM6.57074 11.5318L9.018 17.1896H7.68226C7.52007 17.1899 7.36914 17.2726 7.28154 17.4091L6.80449 18.1676L5.57371 16.4311C5.48474 16.3028 5.33864 16.2262 5.18253 16.226H4.54805L6.57074 11.5318ZM1.22779 23.8969L4.13302 17.1801H4.93446L6.42285 19.3029C6.51182 19.4312 6.65792 19.5078 6.81403 19.5081C6.97283 19.5046 7.11947 19.4223 7.20522 19.2886L7.93987 18.1532H9.42826L11.9137 23.8778L1.22779 23.8969ZM12.9584 23.8969L10.4587 18.1246L12.0282 14.4752H13.9364C14.0986 14.4749 14.2495 14.3923 14.3371 14.2558L14.8666 13.44L16.5554 15.3053C16.6455 15.4052 16.7738 15.4624 16.9084 15.4627H18.6162L22.2466 23.9112L12.9584 23.8969Z" fill="#2D383F"/>
<path d="M7.61096 2.08189C7.16093 0.922602 5.85626 0.347698 4.69703 0.797794C3.83387 1.13286 3.26385 1.96221 3.26028 2.8881C3.25557 2.97075 3.25557 3.05352 3.26028 3.13617C2.13241 3.65997 1.64278 4.99893 2.16658 6.12679C2.52932 6.90778 3.30572 7.41351 4.16667 7.42961L4.19052 7.44869H7.52987C9.01188 7.47112 10.2314 6.28786 10.2538 4.80584C10.2762 3.32383 9.09298 2.10431 7.61096 2.08189ZM7.55849 6.50891H4.21914C3.50512 6.58267 2.86653 6.0637 2.79277 5.34968C2.719 4.63565 3.23797 3.99706 3.952 3.9233C4.21026 3.87124 4.37747 3.61972 4.32541 3.3614C4.32141 3.34166 4.31622 3.32216 4.30978 3.30314C4.26321 3.16968 4.23906 3.02943 4.23823 2.8881C4.23417 2.17146 4.81176 1.58725 5.52841 1.58314C6.16234 1.5795 6.70606 2.03448 6.81429 2.65912C6.85812 2.90993 7.09122 3.08208 7.34382 3.0503C7.41531 3.04559 7.48699 3.04559 7.55849 3.0503C8.51354 3.0503 9.28779 3.82455 9.28779 4.7796C9.28779 5.73466 8.51354 6.50891 7.55849 6.50891Z" fill="#2D383F"/>
<path d="M23.6966 2.63997C23.7013 2.55733 23.7013 2.47456 23.6966 2.39191C23.6917 1.14836 22.6797 0.144172 21.4362 0.148943C20.517 0.152521 19.6936 0.714604 19.3539 1.56727C17.8794 1.59816 16.7046 2.81392 16.7269 4.29057C16.7493 5.77258 17.9688 6.95584 19.4508 6.93342H22.7902C24.0335 6.91016 25.0226 5.88343 24.9994 4.64006C24.9833 3.77911 24.4776 3.00271 23.6966 2.63997ZM24.0559 4.94758C23.9296 5.54008 23.4102 5.96632 22.8045 5.97455H19.4651C18.5101 5.97455 17.7358 5.2003 17.7358 4.24525C17.7358 3.29019 18.5101 2.51594 19.4651 2.51594C19.5366 2.51123 19.6083 2.51123 19.6798 2.51594C19.9212 2.54099 20.1429 2.38088 20.195 2.14384C20.3146 1.43727 20.9843 0.961417 21.6909 1.08098C22.3975 1.20054 22.8734 1.87026 22.7538 2.57688C22.7416 2.64862 22.7235 2.71922 22.6995 2.78792C22.6153 3.03754 22.7494 3.3082 22.9991 3.39246C23.0181 3.3989 23.0376 3.40415 23.0573 3.40808C23.7582 3.5574 24.2053 4.24668 24.0559 4.94758Z" fill="#2D383F"/>
</g>

</g></symbol><symbol id="night" viewBox="0 0 20 20"><g fill="none">
<path d="M19.5272 11.382C19.3228 11.3307 19.1183 11.382 18.9394 11.5103C18.2748 12.0745 17.5081 12.5362 16.6646 12.844C15.8723 13.1518 15.0033 13.3057 14.0831 13.3057C12.0128 13.3057 10.1215 12.4593 8.76681 11.0999C7.41217 9.74052 6.56872 7.84251 6.56872 5.76497C6.56872 4.89291 6.72207 4.0465 6.97767 3.27704C7.25882 2.45628 7.66777 1.71247 8.20451 1.07125C8.43454 0.789119 8.38343 0.378739 8.10227 0.147901C7.92336 0.0196574 7.71888 -0.0316401 7.51441 0.0196573C5.34188 0.609578 3.4505 1.91766 2.09586 3.66177C0.792336 5.38024 0 7.50908 0 9.84311C0 12.6388 1.12461 15.178 2.96487 17.0247C4.80513 18.8715 7.3355 20 10.1215 20C12.4729 20 14.6454 19.1792 16.3835 17.8199C18.147 16.4348 19.425 14.4599 19.9618 12.2028C20.0895 11.8181 19.8851 11.459 19.5272 11.382ZM15.6167 16.7426C14.1342 17.9225 12.2429 18.6406 10.1726 18.6406C7.74444 18.6406 5.54635 17.6403 3.96168 16.0501C2.37701 14.4599 1.3802 12.2541 1.3802 9.81746C1.3802 7.79122 2.04474 5.94451 3.1949 4.45688C3.98724 3.43094 4.98405 2.58453 6.13421 1.99461C6.00642 2.27674 5.87862 2.55888 5.77638 2.86666C5.44411 3.79002 5.29076 4.76467 5.29076 5.79062C5.29076 8.22724 6.28757 10.4587 7.87224 12.0489C9.45691 13.6391 11.6806 14.6394 14.1087 14.6394C15.1822 14.6394 16.2045 14.4599 17.1502 14.1008C17.4825 13.9726 17.8148 13.8443 18.1215 13.6904C17.5081 14.8703 16.6646 15.9219 15.6167 16.7426Z" fill="white"/>
</g></symbol><symbol id="ok" viewBox="0 0 9 16"><g fill="inherit">
<path d="M4.5 2.42035C5.41587 2.42035 6.1607 3.18736 6.1607 4.1305C6.1607 5.0708 5.41587 5.83781 4.5 5.83781C3.58413 5.83781 2.8393 5.0708 2.8393 4.1305C2.8393 3.18736 3.58413 2.42035 4.5 2.42035ZM4.5 8.25816C6.71243 8.25816 8.51106 6.40597 8.51106 4.1305C8.51106 1.85219 6.71243 0 4.5 0C2.28757 0 0.491701 1.85219 0.491701 4.1305C0.491701 6.40597 2.28757 8.25816 4.5 8.25816ZM6.12208 11.6273C6.93863 11.4342 7.72485 11.1018 8.45037 10.6331C8.99934 10.278 9.16486 9.53083 8.82003 8.96551C8.47244 8.39735 7.74967 8.22691 7.19795 8.58485C5.55656 9.6473 3.44344 9.6473 1.79929 8.58485C1.25033 8.22691 0.524805 8.39735 0.179975 8.96551C-0.164855 9.53083 0.000663014 10.278 0.549632 10.6331C1.27515 11.1018 2.06136 11.4342 2.87792 11.6273L0.63515 13.934C0.177216 14.4056 0.177216 15.1726 0.63515 15.6442C0.866875 15.88 1.16481 15.9993 1.4655 15.9993C1.76619 15.9993 2.06688 15.88 2.29861 15.6442L4.5 13.3772L6.70415 15.6442C7.16208 16.1186 7.90416 16.1186 8.36485 15.6442C8.82278 15.1726 8.82278 14.4056 8.36485 13.934L6.12208 11.6273Z" fill="inherit"/>
</g></symbol><symbol id="pine-tree" viewBox="0 0 23 23"><g fill="none">
<g clip-path="url(#clip0_248_2173)">
<path d="M22.6246 16.6365L18.1102 11.472H20.2913C20.546 11.4714 20.7519 11.2644 20.7514 11.0098C20.7511 10.9084 20.7175 10.8099 20.6556 10.7296L17.0312 5.96623H18.8757C19.1304 5.96589 19.3365 5.75919 19.3363 5.50454C19.3361 5.39271 19.2953 5.28475 19.2215 5.20077L14.7856 0.156126C14.6172 -0.0348923 14.3257 -0.0531642 14.1347 0.115317C14.1202 0.128056 14.1066 0.141716 14.0939 0.156126L9.65332 5.19616C9.4827 5.38522 9.49763 5.67682 9.68663 5.84744C9.77229 5.92473 9.88376 5.9671 9.99916 5.96623H11.8667L10.7508 7.42337L7.76273 4.02492C7.5943 3.8339 7.30288 3.81563 7.11186 3.98411C7.09739 3.99685 7.08379 4.01051 7.07105 4.02492L3.27604 8.33639C3.10796 8.52769 3.12681 8.81906 3.31811 8.98714C3.40209 9.06092 3.51005 9.10167 3.62188 9.10184H5.08362L2.04946 13.0721C1.89919 13.2777 1.94398 13.5662 2.14958 13.7165C2.22636 13.7726 2.31864 13.8036 2.41374 13.8053H4.11988L0.370984 18.1167C0.205442 18.3102 0.228094 18.6013 0.421649 18.7669C0.503959 18.8373 0.608518 18.8765 0.716823 18.8776H5.8168V22.1054C5.8168 22.5994 6.21734 23 6.71138 23H8.11779C8.61182 23.0025 9.01444 22.6041 9.01697 22.11C9.01697 22.1085 9.01697 22.107 9.01697 22.1054V18.8776H12.8443V22.1054C12.8443 22.5994 13.2448 23 13.7388 23H15.1453C15.6393 23 16.0398 22.5994 16.0398 22.1054V17.402H22.2788C22.5334 17.4017 22.7396 17.195 22.7393 16.9403C22.7391 16.8285 22.6984 16.7205 22.6246 16.6365ZM8.09473 22.0777L6.73904 22.1054L6.71138 18.8776H8.09473V22.0777ZM12.8443 17.9553H1.73129L5.50324 13.6531C5.67397 13.4642 5.65916 13.1726 5.47021 13.0018C5.38214 12.9223 5.2668 12.8797 5.14818 12.883H3.34981L6.38398 8.91279C6.53932 8.71099 6.50168 8.42146 6.29988 8.26612C6.21953 8.20428 6.12109 8.17061 6.0197 8.17038H4.63634L7.40306 5.02094L10.1698 8.16116L8.22385 10.7342C8.06851 10.936 8.10615 11.2255 8.30795 11.3809C8.3883 11.4427 8.48674 11.4764 8.58813 11.4766H10.7738L6.25948 16.6411C6.0914 16.8325 6.11025 17.1238 6.30156 17.2919C6.38554 17.3657 6.4935 17.4064 6.60532 17.4066H12.8443V17.9553ZM15.1176 22.0685L13.7665 22.1054L13.7388 17.402H15.1222L15.1176 22.0685ZM15.1453 16.4798H7.61978L12.1341 11.3152C12.3022 11.1239 12.2834 10.8325 12.0921 10.6645C12.0081 10.5907 11.9001 10.5499 11.7883 10.5498H9.52421L13.167 5.78178C13.3199 5.57808 13.2786 5.28902 13.0749 5.13622C12.9963 5.07731 12.901 5.04497 12.8028 5.04399H11.0367L14.4582 1.16137L17.8612 5.04399H16.0813C15.8267 5.04463 15.6207 5.25155 15.6213 5.50621C15.6215 5.6076 15.6552 5.70605 15.717 5.7864L19.3368 10.5498H17.0912C16.8365 10.5501 16.6303 10.7568 16.6306 11.0115C16.6307 11.1233 16.6716 11.2312 16.7453 11.3152L21.2597 16.4798H15.1453Z" fill="#2D383F"/>
</g>

</g></symbol><symbol id="reddit" viewBox="0 0 14 15"><g fill="inherit">
<path d="M8.36171 0C7.91277 0 7.49149 0.244007 7.22128 0.59589C6.95106 0.947774 6.80213 1.37671 6.69362 1.82877C6.52128 2.55565 6.46808 3.36216 6.45532 4.08904C5.19361 4.17894 4.05105 4.57962 3.10211 5.19863C2.717 4.85188 2.25317 4.65925 1.80849 4.66438C1.3021 4.66952 0.821252 4.90325 0.463803 5.38356C-0.219178 6.30051 -0.140455 7.80051 0.651038 8.69178C0.602102 8.96661 0.565931 9.24914 0.565931 9.53425C0.565931 12.5548 3.44679 15 7 15C10.5532 15 13.4341 12.5522 13.4341 9.53425C13.4341 9.24914 13.3979 8.96661 13.349 8.69178C14.1405 7.80051 14.2192 6.30051 13.5362 5.38356C13.1788 4.90325 12.6979 4.66952 12.1915 4.66438C11.7468 4.65925 11.283 4.85188 10.8979 5.19863C9.9532 4.58219 8.81703 4.18151 7.5617 4.08904C7.57873 3.41866 7.62341 2.7226 7.74894 2.19863C7.82766 1.86986 7.92128 1.63099 8.02128 1.5C8.12128 1.36901 8.19362 1.31507 8.36171 1.31507C8.72554 1.31507 8.77235 1.44092 8.9915 1.74658C9.10214 1.90068 9.2298 2.09332 9.43405 2.28082C9.63831 2.46832 9.94044 2.63014 10.2681 2.63014V1.31507C10.1766 1.31507 10.1596 1.3125 10.0979 1.25342C10.0362 1.19435 9.95108 1.05822 9.82554 0.883562C9.57448 0.531678 9.08724 0 8.36171 0ZM11.9021 0.123288C11.0553 0.123288 10.3702 0.950343 10.3702 1.9726C10.3702 2.99486 11.0553 3.82192 11.9021 3.82192C12.749 3.82192 13.4341 2.99486 13.4341 1.9726C13.4341 0.950343 12.749 0.123288 11.9021 0.123288ZM11.9021 0.780822C12.4468 0.780822 12.8894 1.31507 12.8894 1.9726C12.8894 2.63014 12.4468 3.16438 11.9021 3.16438C11.3575 3.16438 10.9149 2.63014 10.9149 1.9726C10.9149 1.31507 11.3575 0.780822 11.9021 0.780822ZM7 5.11644C10.0149 5.11644 12.566 7.14298 12.566 9.53425C12.566 11.9281 10.0149 13.9521 7 13.9521C3.98509 13.9521 1.43402 11.9281 1.43402 9.53425C1.43402 7.14298 3.98509 5.11644 7 5.11644ZM1.82551 5.71233C1.97658 5.7149 2.13402 5.75599 2.28509 5.83562C1.73828 6.33647 1.30423 6.91182 1.00849 7.56164C0.80423 7.05308 0.85955 6.41866 1.11061 6.08219C1.29359 5.83562 1.54679 5.70976 1.82551 5.71233ZM12.1745 5.71233C12.4532 5.70976 12.7064 5.83562 12.8894 6.08219C13.1405 6.41866 13.1958 7.05308 12.9915 7.56164C12.6958 6.91182 12.2617 6.33647 11.7149 5.83562C11.866 5.75599 12.0234 5.7149 12.1745 5.71233ZM4.82127 7.35616C4.27658 7.35616 3.83403 7.89041 3.83403 8.54795C3.83403 9.20548 4.27658 9.73973 4.82127 9.73973C5.36595 9.73973 5.80851 9.20548 5.80851 8.54795C5.80851 7.89041 5.36595 7.35616 4.82127 7.35616ZM9.17873 7.35616C8.63405 7.35616 8.19149 7.89041 8.19149 8.54795C8.19149 9.20548 8.63405 9.73973 9.17873 9.73973C9.72342 9.73973 10.166 9.20548 10.166 8.54795C10.166 7.89041 9.72342 7.35616 9.17873 7.35616ZM4.29361 11.4041C4.64042 12.2697 5.71276 13.1096 7 13.1096C8.28724 13.1096 9.37661 12.2697 9.72342 11.4041C9.09363 11.8947 8.10001 12.226 7 12.226C5.9 12.226 4.9234 11.8947 4.29361 11.4041Z" fill="inherit"/>
</g></symbol><symbol id="routes" viewBox="0 0 22 22"><g fill="none">
<g clip-path="url(#clip0_131_2748)">
<path d="M18.1429 8.76743H12.7857C11.1091 8.76743 9.75 10.1366 9.75 11.8256C9.75 13.5145 11.1091 14.8837 12.7857 14.8837H15.1071C16.7837 14.8837 18.1429 16.2529 18.1429 17.9419C18.1429 19.6308 16.7837 21 15.1071 21H3.85714M6.71428 15.9302C6.71428 14.3406 5.4351 13.0519 3.85714 13.0519C2.27919 13.0519 1 14.3406 1 15.9302V16.0384C1 16.6695 1.1985 17.2845 1.56701 17.7949L3.8515 20.9593C3.85429 20.9632 3.86 20.9632 3.86279 20.9593L6.14727 17.7949C6.51578 17.2845 6.71428 16.6695 6.71428 16.0384V15.9302ZM4.40947 14.7454L4.42662 14.7535C4.77242 14.9183 5.02453 15.2332 5.11112 15.6086C5.19868 15.9881 5.10458 16.3904 4.86077 16.6929C4.61964 16.9921 4.25485 17.1691 3.87232 17.1691H3.84197C3.45944 17.1691 3.09464 16.9921 2.85352 16.6929C2.60971 16.3904 2.51561 15.9881 2.60316 15.6086C2.68975 15.2332 2.94186 14.9183 3.28767 14.7535L3.30482 14.7454C3.65446 14.5788 4.05982 14.5788 4.40947 14.7454ZM21 3.89849C21 2.30887 19.7208 1 18.1429 1C16.5649 1 15.2857 2.30887 15.2857 3.89849C15.2857 4.52339 15.4857 5.1384 15.8561 5.63972L18.1372 8.72766C18.14 8.73147 18.1457 8.73147 18.1485 8.72766L20.4297 5.63972C20.8 5.1384 21 4.52339 21 3.89849ZM18.6875 2.65136L18.7262 2.66941C19.0631 2.82627 19.3099 3.13018 19.3957 3.4939C19.4838 3.86694 19.3925 4.25998 19.1492 4.55491L19.137 4.56971C18.8999 4.85725 18.548 5.02359 18.1769 5.02359H18.1088C17.7377 5.02359 17.3858 4.85725 17.1487 4.56971L17.1365 4.55491C16.8932 4.25998 16.8019 3.86694 16.89 3.4939C16.9758 3.13018 17.2226 2.82627 17.5595 2.66941L17.5983 2.65136C17.9438 2.49048 18.342 2.49048 18.6875 2.65136Z" stroke="#0266C1" stroke-linecap="round"/>
</g>

</g></symbol><symbol id="safety" viewBox="0 0 22 22"><g fill="none">
<path d="M8.75001 10.912L11 13.1562L14.9375 9.22882M11 1C8.67869 2.18698 6.09257 2.81813 3.44902 2.81813C3.09212 2.81813 2.73627 2.80662 2.38197 2.7838C1.92463 4.87029 1.87403 7.04136 2.25148 9.17646C2.92717 12.9986 4.93142 16.4612 7.91222 18.9559C8.86795 19.7558 9.90448 20.4398 11 21C12.0955 20.4398 13.132 19.7558 14.0878 18.9559C17.0686 16.4612 19.0728 12.9986 19.7485 9.17647C20.126 7.04136 20.0754 4.87029 19.618 2.7838C19.2637 2.80662 18.9078 2.81813 18.5509 2.81813C15.9074 2.81813 13.3212 2.18698 11 1Z" stroke="#0266C1"/>
</g></symbol><symbol id="star" viewBox="0 0 15 14"><g fill="inherit">
<g clip-path="url(#clip0_248_2546)">
<path d="M7.74525 10.6055L7.5 10.4674L7.25475 10.6055L3.63071 12.6453L4.57642 8.85073L4.6535 8.54147L4.40569 8.34105L1.28779 5.81937L5.43318 5.48739L5.72674 5.46388L5.84852 5.19573L7.5 1.55927L9.15151 5.19574L9.27329 5.46388L9.56685 5.48739L13.7122 5.81937L10.5943 8.34105L10.3465 8.54147L10.4236 8.85073L11.3693 12.6453L7.74525 10.6055Z" stroke="white"/>
</g>

</g></symbol><symbol id="telephone" viewBox="0 0 26 26"><g fill="none">
<g clip-path="url(#clip0_248_2060)">
<path d="M22.8368 23.6885C22.4584 24.4342 21.6789 24.8974 20.8502 24.8067C20.494 24.7677 20.1382 24.72 19.783 24.6636C15.1541 23.9275 10.8761 21.7392 7.56222 18.4122C4.24829 15.0852 2.06855 10.7904 1.3354 6.14328C1.27919 5.78698 1.2317 5.43001 1.19289 5.07268C1.10253 4.24071 1.56391 3.45809 2.30667 3.07814L5.55725 1.41536C6.81529 0.771838 8.33752 1.5225 8.77994 2.8686C9.04827 3.68504 9.36516 4.48843 9.73023 5.2744C9.91316 5.66825 10.1072 6.0556 10.312 6.43607C10.7968 7.33683 10.4698 8.49216 9.54135 8.91583C8.19298 9.53113 7.87184 11.3091 8.91916 12.3605L13.5902 17.0499C14.6375 18.1014 16.4085 17.779 17.0214 16.4253C17.4666 15.4418 18.6736 15.0858 19.632 15.577C19.8643 15.6961 20.0991 15.8112 20.3363 15.9222C21.2349 16.3429 22.1563 16.6998 23.094 16.9925C24.4592 17.4186 25.2342 18.965 24.5851 20.2438L22.8368 23.6885Z" stroke="#2D383F" stroke-linecap="round" stroke-linejoin="round"/>
</g>

</g></symbol><symbol id="toggle-closed" viewBox="0 0 26 26"><g fill="inherit">
  <path d="M0 3.54541H26V5.71534H0V3.54541Z" fill="inherit"/>
  <path d="M0 20.2846H26V22.4545H0V20.2846Z" fill="inherit"/>
  <path d="M0 11.915H16.64V14.0849H0V11.915Z" fill="inherit"/>
</g></symbol><symbol id="toggle-opened" viewBox="0 0 22 22"><g stroke="inherit" fill="none">
<path d="M2 2L11 11M20 20L11 11M11 11L20 2L2 20" stroke="inherit" stroke-width="2"/>
</g></symbol><symbol id="vk" viewBox="0 0 14 8"><g fill="inherit">
<path d="M13.9258 7.22488C13.9088 7.18829 13.893 7.15794 13.8783 7.13362C13.6354 6.69547 13.1712 6.15768 12.4861 5.52008L12.4716 5.50548L12.4643 5.49832L12.457 5.49098H12.4497C12.1387 5.19409 11.9418 4.99446 11.8593 4.89225C11.7084 4.69756 11.6746 4.50049 11.7571 4.30081C11.8154 4.14995 12.0342 3.83134 12.4131 3.34456C12.6125 3.08658 12.7703 2.87982 12.8869 2.72405C13.7276 1.60458 14.0921 0.889223 13.9803 0.5777L13.9369 0.504902C13.9077 0.461074 13.8324 0.42098 13.711 0.384414C13.5894 0.347925 13.434 0.341891 13.2444 0.366208L11.1452 0.380732C11.1111 0.368663 11.0626 0.369788 10.9993 0.384414C10.9361 0.39904 10.9045 0.406379 10.9045 0.406379L10.868 0.424662L10.839 0.446627C10.8147 0.461151 10.788 0.486696 10.7588 0.52321C10.7297 0.559597 10.7055 0.602299 10.6861 0.650959C10.4575 1.23987 10.1977 1.78741 9.90602 2.29354C9.7262 2.59535 9.56107 2.85691 9.41026 3.07837C9.25966 3.29976 9.1333 3.46287 9.03133 3.56743C8.92921 3.67209 8.83705 3.75593 8.75428 3.81927C8.67163 3.88264 8.60855 3.90941 8.56486 3.89961C8.52108 3.88982 8.47985 3.8801 8.44081 3.87039C8.37282 3.82656 8.31813 3.76696 8.2769 3.69152C8.23549 3.61609 8.20761 3.52115 8.19303 3.40677C8.17853 3.29232 8.16995 3.19387 8.1675 3.1111C8.16523 3.02843 8.16628 2.9115 8.17121 2.76064C8.17626 2.6097 8.17853 2.50757 8.17853 2.45402C8.17853 2.26905 8.18213 2.0683 8.18936 1.85171C8.19671 1.63513 8.20266 1.46353 8.20764 1.33711C8.21259 1.21056 8.21489 1.07668 8.21489 0.935531C8.21489 0.794383 8.20631 0.683689 8.18936 0.603347C8.17261 0.523107 8.1469 0.44522 8.11302 0.369711C8.07894 0.294279 8.02905 0.235928 7.96359 0.194504C7.898 0.153131 7.81646 0.120299 7.71941 0.0959046C7.46183 0.0375276 7.13384 0.00594826 6.73528 0.00103876C5.83147 -0.00867795 5.25072 0.0497757 4.99317 0.176323C4.89112 0.229791 4.79878 0.302845 4.71621 0.395256C4.62872 0.50237 4.61651 0.560824 4.67968 0.570438C4.97129 0.614189 5.17773 0.718848 5.29923 0.884314L5.34302 0.971994C5.37707 1.03526 5.41108 1.14725 5.44511 1.30783C5.47909 1.46842 5.50103 1.64605 5.51068 1.84064C5.53493 2.19599 5.53493 2.50018 5.51068 2.75322C5.48635 3.00637 5.46337 3.20344 5.44144 3.34459C5.41951 3.48573 5.38672 3.60011 5.34302 3.68769C5.29923 3.77529 5.2701 3.82884 5.2555 3.84827C5.24092 3.8677 5.22877 3.87995 5.21912 3.88476C5.15595 3.909 5.09026 3.92135 5.02227 3.92135C4.95418 3.92135 4.87162 3.88724 4.77445 3.81907C4.6773 3.7509 4.57648 3.65726 4.47198 3.538C4.36749 3.41871 4.24964 3.25202 4.11838 3.0379C3.98723 2.82377 3.85115 2.5707 3.71023 2.27869L3.59363 2.06691C3.52074 1.93068 3.42117 1.7323 3.29481 1.47197C3.16839 1.21154 3.05664 0.959618 2.95949 0.716265C2.92066 0.614061 2.86232 0.536251 2.78458 0.482707L2.7481 0.460742C2.72385 0.441308 2.68491 0.420673 2.6315 0.398682C2.57801 0.376717 2.5222 0.360966 2.46384 0.351275L0.466599 0.365799C0.262507 0.365799 0.124028 0.412107 0.0511125 0.504595L0.0219309 0.548345C0.00735285 0.572714 0 0.611632 0 0.665202C0 0.718746 0.014578 0.784462 0.0437596 0.862272C0.33532 1.54858 0.652386 2.21047 0.994957 2.84804C1.33753 3.48561 1.63522 3.99918 1.88784 4.38831C2.14052 4.77772 2.39807 5.14525 2.6605 5.4907C2.92293 5.83628 3.09665 6.05775 3.18164 6.15504C3.26673 6.25252 3.33357 6.32539 3.38216 6.37405L3.56442 6.54923C3.68104 6.66607 3.8523 6.80598 4.07828 6.969C4.3043 7.13211 4.55453 7.29269 4.82908 7.451C5.10369 7.60905 5.42316 7.73802 5.78766 7.83777C6.15211 7.93762 6.50683 7.97769 6.85188 7.95836H7.69016C7.86017 7.94366 7.98897 7.89012 8.07651 7.7977L8.10552 7.76111C8.12502 7.73207 8.14328 7.68693 8.16013 7.6262C8.17718 7.56537 8.18566 7.49835 8.18566 7.42545C8.18068 7.21621 8.19658 7.02763 8.23294 6.85973C8.26927 6.69189 8.31068 6.56534 8.35699 6.48012C8.40328 6.39497 8.45552 6.32312 8.51365 6.26487C8.57191 6.20649 8.61342 6.17113 8.63778 6.15895C8.66198 6.14671 8.68131 6.1384 8.69589 6.13341C8.81251 6.09449 8.94976 6.13218 9.10785 6.24666C9.26581 6.36104 9.41396 6.50226 9.55254 6.6701C9.69105 6.8381 9.85746 7.02658 10.0518 7.23582C10.2463 7.44514 10.4163 7.60074 10.562 7.70309L10.7078 7.7907C10.8051 7.84915 10.9314 7.9027 11.087 7.95136C11.2422 7.99999 11.3782 8.01216 11.495 7.98784L13.361 7.95869C13.5456 7.95869 13.6892 7.92809 13.7911 7.86736C13.8931 7.80653 13.9538 7.73951 13.9733 7.66661C13.9928 7.59363 13.9939 7.51083 13.977 7.41827C13.9597 7.32593 13.9427 7.26137 13.9258 7.22488Z" fill="inherit"/>
</g></symbol><symbol id="yer" viewBox="0 0 9 12"><g fill="none">
<path d="M4.49981 0C2.01874 0 0 1.98191 0 4.41796C0 5.05338 0.132472 5.66006 0.39354 6.2213C1.51862 8.63833 3.67571 11.1902 4.31017 11.9146C4.35771 11.9688 4.42701 12 4.49994 12C4.57287 12 4.64217 11.9688 4.6897 11.9146C5.32392 11.1903 7.48101 8.63857 8.60646 6.2213C8.86765 5.66006 9 5.05338 9 4.41796C8.99975 1.98191 6.98101 0 4.49981 0ZM4.49981 6.71267C3.21099 6.71267 2.16234 5.68315 2.16234 4.41784C2.16234 3.15241 3.21099 2.12289 4.49981 2.12289C5.78864 2.12289 6.83728 3.15241 6.83728 4.41784C6.83741 5.68315 5.78876 6.71267 4.49981 6.71267Z" fill="white"/>
</g></symbol></svg>