<svg width="512" height="512" viewBox="0 0 512 512" fill="none" xmlns="http://www.w3.org/2000/svg">
<rect width="512" height="512" fill="url(#paint0_linear_82_506)"/>
<path d="M253.637 413.867C236.483 413.867 221.604 411.231 209.001 405.96C196.398 400.689 186.771 391.377 180.119 378.024C173.818 364.671 170.667 345.871 170.667 321.624V303.703C179.069 303.703 187.646 303.703 196.398 303.703C205.15 303.703 213.728 303.703 222.13 303.703V325.841C222.13 340.6 223.53 352.02 226.331 360.102C229.131 368.185 232.982 373.807 237.883 376.97C242.785 379.781 248.386 381.187 254.688 381.187C264.84 381.187 272.892 377.848 278.843 371.172C285.145 364.144 288.296 351.142 288.296 332.166C288.296 318.11 286.195 307.568 281.994 300.54C277.793 293.512 271.142 287.89 262.039 283.673C253.287 279.105 241.909 274.009 227.906 268.387C216.353 263.116 206.376 256.966 197.974 249.938C189.572 242.91 183.27 233.95 179.069 223.056C174.868 212.163 172.768 198.634 172.768 182.47C172.768 162.791 175.218 146.802 180.119 134.503C185.371 121.853 194.123 112.717 206.376 107.094C218.629 101.12 235.083 98.1334 255.738 98.1334C282.344 98.1334 302.649 104.283 316.653 116.582C330.656 128.53 337.658 146.1 337.658 169.292V205.662C329.606 205.662 321.379 205.662 312.977 205.662C304.925 205.662 296.698 205.662 288.296 205.662V184.051C288.296 167.886 285.67 156.29 280.419 149.262C275.518 141.883 267.466 138.193 256.263 138.193C244.71 138.193 236.308 141.707 231.057 148.735C226.156 155.412 223.705 166.129 223.705 180.888C223.705 193.539 226.156 203.378 231.057 210.406C235.958 217.082 242.259 222.353 249.961 226.219C258.013 230.084 266.24 233.598 274.642 236.761C290.396 242.735 303.174 248.884 312.977 255.209C322.779 261.535 329.956 269.968 334.507 280.51C339.058 291.052 341.334 305.987 341.334 325.314C341.334 347.452 337.658 365.022 330.306 378.024C323.304 390.674 313.152 399.811 299.849 405.433C286.895 411.056 271.492 413.867 253.637 413.867Z" fill="white"/>
<defs>
<linearGradient id="paint0_linear_82_506" x1="101.243" y1="0.000153944" x2="541.62" y2="54.4994" gradientUnits="userSpaceOnUse">
<stop stop-color="#ED0233"/>
<stop offset="1" stop-color="#003EB7"/>
</linearGradient>
</defs>
</svg>
