<svg xmlns="http://www.w3.org/2000/svg" xmlns:xlink="http://www.w3.org/1999/xlink"><symbol id="icon-close" viewBox="0 0 20 20"><g fill="none"><path d="M.293 18.291a1 1 0 101.414 1.414L10 11.413l8.292 8.292a1 1 0 101.414-1.414l-8.292-8.292 8.292-8.292A1 1 0 1018.291.293L9.999 8.585 1.707.293A1 1 0 10.293 1.707L8.585 10 .293 18.291z"/></g></symbol><symbol id="logo" viewBox="0 0 81 16"><g fill="none">
<path d="M4.608 15.168C3.76 15.168 3.032 15.048 2.424 14.808C1.832 14.568 1.376 14.144 1.056 13.536C0.736 12.928 0.576 12.072 0.576 10.968V10.128C1.072 10.128 1.56 10.128 2.04 10.128C2.52 10.128 3 10.128 3.48 10.128V11.208C3.48 11.8 3.528 12.256 3.624 12.576C3.72 12.88 3.856 13.096 4.032 13.224C4.208 13.336 4.416 13.392 4.656 13.392C5.024 13.392 5.312 13.264 5.52 13.008C5.744 12.736 5.856 12.216 5.856 11.448C5.856 10.856 5.76 10.416 5.568 10.128C5.392 9.824 5.104 9.584 4.704 9.408C4.304 9.216 3.792 8.984 3.168 8.712C2.608 8.472 2.144 8.184 1.776 7.848C1.408 7.512 1.136 7.088 0.96 6.576C0.784 6.064 0.696 5.44 0.696 4.704C0.696 3.776 0.816 3.024 1.056 2.448C1.312 1.872 1.728 1.456 2.304 1.2C2.896 0.927999 3.688 0.792 4.68 0.792C5.96 0.792 6.936 1.072 7.608 1.632C8.296 2.176 8.64 3 8.64 4.104V5.808C8.176 5.808 7.712 5.808 7.248 5.808C6.8 5.808 6.336 5.808 5.856 5.808V4.944C5.856 4.224 5.768 3.72 5.592 3.432C5.432 3.144 5.136 3 4.704 3C4.288 3 3.992 3.128 3.816 3.384C3.64 3.64 3.552 4.056 3.552 4.632C3.552 5.16 3.656 5.576 3.864 5.88C4.088 6.168 4.368 6.392 4.704 6.552C5.04 6.696 5.4 6.84 5.784 6.984C6.488 7.256 7.064 7.536 7.512 7.824C7.96 8.096 8.288 8.48 8.496 8.976C8.704 9.456 8.808 10.152 8.808 11.064C8.808 12.088 8.632 12.904 8.28 13.512C7.944 14.104 7.456 14.528 6.816 14.784C6.192 15.04 5.456 15.168 4.608 15.168ZM14.751 15.288C14.175 15.288 13.647 15.248 13.167 15.168C12.687 15.088 12.271 14.92 11.919 14.664C11.567 14.408 11.295 14.032 11.103 13.536C10.911 13.024 10.815 12.336 10.815 11.472V0.816H13.599V12.264C13.599 12.6 13.647 12.872 13.743 13.08C13.855 13.272 13.999 13.4 14.175 13.464C14.351 13.528 14.543 13.56 14.751 13.56C14.943 13.56 15.127 13.528 15.303 13.464C15.479 13.4 15.615 13.272 15.711 13.08C15.823 12.872 15.879 12.6 15.879 12.264V0.816H18.663V11.472C18.663 12.32 18.567 13 18.375 13.512C18.183 14.024 17.911 14.408 17.559 14.664C17.223 14.92 16.807 15.088 16.311 15.168C15.831 15.248 15.311 15.288 14.751 15.288ZM21.1164 15V0.816H26.1564C27.1004 0.816 27.8124 1.032 28.2924 1.464C28.7884 1.88 29.0364 2.464 29.0364 3.216V5.664C29.0364 6.304 28.9564 6.904 28.7964 7.464C28.6364 8.008 28.3484 8.448 27.9324 8.784C27.5164 9.12 26.9164 9.288 26.1324 9.288H24.0204V15H21.1164ZM24.0204 7.752H25.1004C25.4844 7.752 25.7724 7.568 25.9644 7.2C26.1564 6.832 26.2524 6.224 26.2524 5.376V4.416C26.2524 3.664 26.1724 3.128 26.0124 2.808C25.8524 2.488 25.6204 2.328 25.3164 2.328H24.0204V7.752ZM31.0183 15V0.816H37.5463V2.784H33.9223V6.576H36.9943V8.76H33.9223V13.08H37.5463V15H31.0183ZM39.5139 15V0.816H44.6979C45.6419 0.816 46.3539 1.032 46.8339 1.464C47.3139 1.88 47.5539 2.464 47.5539 3.216V5.424C47.5539 6.176 47.3539 6.808 46.9539 7.32C46.5539 7.832 45.9299 8.128 45.0819 8.208C45.6259 8.288 46.0099 8.472 46.2339 8.76C46.4739 9.032 46.6819 9.48 46.8579 10.104L48.2019 15H45.1059L44.0739 10.296C43.9779 9.912 43.8659 9.592 43.7379 9.336C43.6259 9.064 43.4579 8.928 43.2339 8.928H42.4179V15H39.5139ZM42.4179 6.984H43.5699C44.0179 6.984 44.3379 6.864 44.5299 6.624C44.7219 6.368 44.8179 5.968 44.8179 5.424V3.72C44.8179 3.208 44.7299 2.848 44.5539 2.64C44.3779 2.432 44.1059 2.328 43.7379 2.328H42.4179V6.984ZM53.0481 15.264C52.5041 15.264 51.9921 15.176 51.5121 15C51.0481 14.824 50.6641 14.48 50.3601 13.968C50.0561 13.44 49.9041 12.656 49.9041 11.616V3.84C49.9041 3.008 50.0641 2.36 50.3841 1.896C50.7201 1.432 51.1841 1.112 51.7761 0.935999C52.3681 0.743999 53.0561 0.647999 53.8401 0.647999C54.6241 0.647999 55.3121 0.743999 55.9041 0.935999C56.5121 1.112 56.9841 1.432 57.3201 1.896C57.6721 2.36 57.8481 3.008 57.8481 3.84V5.832H55.1361V3.696C55.1361 3.312 55.0801 3.024 54.9681 2.832C54.8721 2.624 54.7361 2.488 54.5601 2.424C54.3841 2.36 54.1681 2.328 53.9121 2.328C53.6721 2.328 53.4561 2.36 53.2641 2.424C53.0881 2.488 52.9441 2.624 52.8321 2.832C52.7361 3.024 52.6881 3.312 52.6881 3.696V12.288C52.6881 12.656 52.7361 12.944 52.8321 13.152C52.9441 13.344 53.0881 13.48 53.2641 13.56C53.4561 13.624 53.6721 13.656 53.9121 13.656C54.2801 13.656 54.5761 13.544 54.8001 13.32C55.0241 13.096 55.1361 12.752 55.1361 12.288V9.456H53.9841V7.872H57.8481V15H55.7601L55.6161 13.896C55.5841 13.944 55.5521 13.992 55.5201 14.04C55.4881 14.088 55.4641 14.128 55.4481 14.16C55.2881 14.432 55.0161 14.688 54.6321 14.928C54.2641 15.152 53.7361 15.264 53.0481 15.264ZM61.9866 15V8.976L59.3226 0.816H62.1066L63.3306 5.064L63.4986 5.976L63.6666 5.064L64.9866 0.816H67.5306L64.7706 9.12V15H61.9866ZM69.2664 15V0.816H72.7464L74.6904 9.984L76.6584 0.816H80.1144V15H77.6664V4.392L75.6264 15H73.7304L71.7144 4.392V15H69.2664Z" fill="white"/>
</g></symbol><symbol id="ok" viewBox="0 0 10 17"><g fill="inherit">
<path d="M4.68026 2.88903C5.57876 2.88903 6.30946 3.64334 6.30946 4.57085C6.30946 5.49557 5.57876 6.24987 4.68026 6.24987C3.78177 6.24987 3.05107 5.49557 3.05107 4.57085C3.05107 3.64334 3.78177 2.88903 4.68026 2.88903ZM4.68026 8.63012C6.85072 8.63012 8.61523 6.80862 8.61523 4.57085C8.61523 2.33029 6.85072 0.508789 4.68026 0.508789C2.5098 0.508789 0.747998 2.33029 0.747998 4.57085C0.747998 6.80862 2.5098 8.63012 4.68026 8.63012ZM6.27157 11.9435C7.07264 11.7535 7.84394 11.4266 8.55569 10.9657C9.09425 10.6164 9.25663 9.8817 8.91834 9.32575C8.57734 8.76701 7.86829 8.59938 7.32703 8.95139C5.71678 9.99624 3.64375 9.99624 2.03079 8.95139C1.49223 8.59938 0.780474 8.76701 0.442186 9.32575C0.103897 9.8817 0.266275 10.6164 0.804831 10.9657C1.51659 11.4266 2.28789 11.7535 3.08895 11.9435L0.888726 14.212C0.439479 14.6757 0.439479 15.43 0.888726 15.8938C1.11606 16.1257 1.40834 16.243 1.70332 16.243C1.99831 16.243 2.2933 16.1257 2.52063 15.8938L4.68026 13.6644L6.8426 15.8938C7.29185 16.3603 8.01985 16.3603 8.4718 15.8938C8.92105 15.43 8.92105 14.6757 8.4718 14.212L6.27157 11.9435Z" fill="inherit"/>
</g></symbol><symbol id="reddit" viewBox="0 0 15 15"><g fill="inherit">
<path d="M8.85101 0.555664C8.40563 0.555664 7.9877 0.781596 7.71963 1.10741C7.45156 1.43323 7.30381 1.8304 7.19616 2.24897C7.02518 2.92201 6.97241 3.66877 6.95975 4.34181C5.70806 4.42505 4.57457 4.79606 3.63316 5.36921C3.2511 5.04815 2.79095 4.86978 2.3498 4.87454C1.84743 4.87929 1.3704 5.09571 1.01579 5.54044C0.338225 6.38947 0.416324 7.77836 1.20154 8.60361C1.15299 8.85808 1.1171 9.11969 1.1171 9.38367C1.1171 12.1805 3.9751 14.4446 7.50011 14.4446C11.0251 14.4446 13.8831 12.1781 13.8831 9.38367C13.8831 9.11969 13.8472 8.85808 13.7987 8.60361C14.5839 7.77836 14.662 6.38947 13.9844 5.54044C13.6298 5.09571 13.1528 4.87929 12.6504 4.87454C12.2093 4.86978 11.7491 5.04815 11.3671 5.36921C10.4299 4.79843 9.30272 4.42743 8.05736 4.34181C8.07424 3.72109 8.11857 3.07659 8.2431 2.59143C8.3212 2.28702 8.41408 2.06584 8.51328 1.94455C8.61249 1.82326 8.68426 1.77332 8.85101 1.77332C9.21195 1.77332 9.25839 1.88985 9.4758 2.17286C9.58556 2.31556 9.71221 2.49393 9.91484 2.66754C10.1175 2.84115 10.4172 2.99098 10.7423 2.99098V1.77332C10.6515 1.77332 10.6346 1.77094 10.5734 1.71624C10.5122 1.66154 10.4278 1.5355 10.3032 1.37378C10.0542 1.04796 9.57079 0.555664 8.85101 0.555664ZM12.3634 0.669819C11.5233 0.669819 10.8436 1.43561 10.8436 2.38215C10.8436 3.32869 11.5233 4.09448 12.3634 4.09448C13.2034 4.09448 13.8831 3.32869 13.8831 2.38215C13.8831 1.43561 13.2034 0.669819 12.3634 0.669819ZM12.3634 1.27865C12.9037 1.27865 13.3428 1.77332 13.3428 2.38215C13.3428 2.99098 12.9037 3.48565 12.3634 3.48565C11.823 3.48565 11.3839 2.99098 11.3839 2.38215C11.3839 1.77332 11.823 1.27865 12.3634 1.27865ZM7.50011 5.29311C10.4911 5.29311 13.0219 7.16953 13.0219 9.38367C13.0219 11.6002 10.4911 13.4742 7.50011 13.4742C4.50913 13.4742 1.9783 11.6002 1.9783 9.38367C1.9783 7.16953 4.50913 5.29311 7.50011 5.29311ZM2.36669 5.84486C2.51655 5.84724 2.67275 5.88529 2.82262 5.95901C2.28015 6.42277 1.84955 6.95549 1.55615 7.55719C1.35351 7.0863 1.40839 6.49887 1.65746 6.18732C1.83899 5.95901 2.09017 5.84248 2.36669 5.84486ZM12.6335 5.84486C12.91 5.84248 13.1612 5.95901 13.3428 6.18732C13.5918 6.49887 13.6467 7.0863 13.4441 7.55719C13.1507 6.95549 12.7201 6.42277 12.1776 5.95901C12.3275 5.88529 12.4837 5.84724 12.6335 5.84486ZM5.33867 7.36693C4.79831 7.36693 4.35927 7.8616 4.35927 8.47043C4.35927 9.07926 4.79831 9.57393 5.33867 9.57393C5.87903 9.57393 6.31807 9.07926 6.31807 8.47043C6.31807 7.8616 5.87903 7.36693 5.33867 7.36693ZM9.66155 7.36693C9.12119 7.36693 8.68215 7.8616 8.68215 8.47043C8.68215 9.07926 9.12119 9.57393 9.66155 9.57393C10.2019 9.57393 10.641 9.07926 10.641 8.47043C10.641 7.8616 10.2019 7.36693 9.66155 7.36693ZM4.81519 11.115C5.15925 11.9165 6.22309 12.6942 7.50011 12.6942C8.77713 12.6942 9.85785 11.9165 10.2019 11.115C9.57712 11.5693 8.59138 11.8761 7.50011 11.8761C6.40883 11.8761 5.43999 11.5693 4.81519 11.115Z" fill="inherit"/>
</g></symbol><symbol id="rouble" viewBox="0 0 30 42"><g fill="none">
<path fill-rule="evenodd" clip-rule="evenodd" d="M18.5 6H10V17H18.5C21.5376 17 24 14.5376 24 11.5C24 8.46243 21.5376 6 18.5 6ZM4 0V23H18.5C24.8513 23 30 17.8513 30 11.5C30 5.14873 24.8513 0 18.5 0H4Z" fill="#102654"/>
<path fill-rule="evenodd" clip-rule="evenodd" d="M0 17H6V23H0V17Z" fill="#102654"/>
<path fill-rule="evenodd" clip-rule="evenodd" d="M3.65854 28.3214V18H9.65854V28.3214H21V34.3214H9.65854V42H3.65854V34.3214H0V28.3214H3.65854Z" fill="#102654"/>
</g></symbol><symbol id="vk" viewBox="0 0 15 15"><g fill="inherit">
<path d="M8.72271 9.05176C9.16539 8.90867 9.73216 9.99638 10.3355 10.4127C10.7884 10.728 11.1352 10.6599 11.1352 10.6599L12.7434 10.6368C12.7434 10.6368 13.5838 10.5849 13.1865 9.9172C13.1536 9.86163 12.9536 9.4222 11.9895 8.51786C10.9815 7.57185 11.1181 7.72512 12.3317 6.08962C13.0712 5.09267 13.3671 4.48376 13.2745 4.22445C13.1856 3.97486 12.6424 4.03969 12.6424 4.03969L10.8305 4.05219C10.6541 4.05265 10.5045 4.10729 10.4365 4.29066C10.4351 4.29252 10.1489 5.06211 9.76735 5.7164C8.96118 7.10046 8.63936 7.17408 8.506 7.08749C8.19992 6.88699 8.27725 6.28317 8.27725 5.85392C8.27725 4.51246 8.47729 3.9531 7.88551 3.80863C7.68779 3.76047 7.54332 3.72898 7.03905 3.72435C6.39449 3.71463 5.84716 3.72435 5.53692 3.8767C5.33086 3.97996 5.17296 4.20639 5.26881 4.21935C5.3892 4.23556 5.65916 4.29344 5.80363 4.4907C5.98932 4.74631 5.98376 5.3191 5.98376 5.3191C5.98376 5.3191 6.0898 6.89857 5.73371 7.09444C5.48922 7.22872 5.1549 6.9546 4.43578 5.69788C4.06858 5.05516 3.79121 4.34484 3.79121 4.34484C3.79121 4.34484 3.7375 4.21287 3.64026 4.14063C3.52449 4.05497 3.36243 4.02765 3.36243 4.02765L1.64265 4.03876C1.64265 4.03876 1.38427 4.04617 1.28935 4.16008C1.20507 4.26103 1.2824 4.4694 1.2824 4.4694C1.2824 4.4694 2.62942 7.65566 4.15471 9.26059C5.55312 10.734 7.14231 10.6363 7.14231 10.6363H7.86236C7.86236 10.6363 8.07953 10.6113 8.19066 10.4918C8.29439 10.3807 8.28976 10.1719 8.28976 10.1719C8.28976 10.1719 8.2754 9.1953 8.72271 9.05176Z" fill="inherit"/>
</g></symbol></svg>